<svg class="rich-terminal" viewBox="0 0 994 830.8" xmlns="http://www.w3.org/2000/svg">
    <!-- Generated with Rich https://www.textualize.io -->
    <style>

    @font-face {
        font-family: "Fira Code";
        src: local("FiraCode-Regular"),
                url("https://cdnjs.cloudflare.com/ajax/libs/firacode/6.2.0/woff2/FiraCode-Regular.woff2") format("woff2"),
                url("https://cdnjs.cloudflare.com/ajax/libs/firacode/6.2.0/woff/FiraCode-Regular.woff") format("woff");
        font-style: normal;
        font-weight: 400;
    }
    @font-face {
        font-family: "Fira Code";
        src: local("FiraCode-Bold"),
                url("https://cdnjs.cloudflare.com/ajax/libs/firacode/6.2.0/woff2/FiraCode-Bold.woff2") format("woff2"),
                url("https://cdnjs.cloudflare.com/ajax/libs/firacode/6.2.0/woff/FiraCode-Bold.woff") format("woff");
        font-style: bold;
        font-weight: 700;
    }

    .terminal-matrix {
        font-family: Fira Code, monospace;
        font-size: 20px;
        line-height: 24.4px;
        font-variant-east-asian: full-width;
    }

    .terminal-title {
        font-size: 18px;
        font-weight: bold;
        font-family: arial;
    }

    .terminal-r1 { fill: #64a0b4 }
.terminal-r2 { fill: #82c8dc;font-weight: bold }
.terminal-r3 { fill: #c5c8c6 }
.terminal-r4 { fill: #c8d2d7 }
.terminal-r5 { fill: #dce1e6 }
.terminal-r6 { fill: #8cb4a0 }
.terminal-r7 { fill: #0c1013 }
.terminal-r8 { fill: #50c878 }
.terminal-r9 { fill: #647882 }
    </style>

    <defs>
    <clipPath id="terminal-clip-terminal">
      <rect x="0" y="0" width="975.0" height="779.8" />
    </clipPath>
    <clipPath id="terminal-line-0">
    <rect x="0" y="1.5" width="976" height="24.65"/>
            </clipPath>
<clipPath id="terminal-line-1">
    <rect x="0" y="25.9" width="976" height="24.65"/>
            </clipPath>
<clipPath id="terminal-line-2">
    <rect x="0" y="50.3" width="976" height="24.65"/>
            </clipPath>
<clipPath id="terminal-line-3">
    <rect x="0" y="74.7" width="976" height="24.65"/>
            </clipPath>
<clipPath id="terminal-line-4">
    <rect x="0" y="99.1" width="976" height="24.65"/>
            </clipPath>
<clipPath id="terminal-line-5">
    <rect x="0" y="123.5" width="976" height="24.65"/>
            </clipPath>
<clipPath id="terminal-line-6">
    <rect x="0" y="147.9" width="976" height="24.65"/>
            </clipPath>
<clipPath id="terminal-line-7">
    <rect x="0" y="172.3" width="976" height="24.65"/>
            </clipPath>
<clipPath id="terminal-line-8">
    <rect x="0" y="196.7" width="976" height="24.65"/>
            </clipPath>
<clipPath id="terminal-line-9">
    <rect x="0" y="221.1" width="976" height="24.65"/>
            </clipPath>
<clipPath id="terminal-line-10">
    <rect x="0" y="245.5" width="976" height="24.65"/>
            </clipPath>
<clipPath id="terminal-line-11">
    <rect x="0" y="269.9" width="976" height="24.65"/>
            </clipPath>
<clipPath id="terminal-line-12">
    <rect x="0" y="294.3" width="976" height="24.65"/>
            </clipPath>
<clipPath id="terminal-line-13">
    <rect x="0" y="318.7" width="976" height="24.65"/>
            </clipPath>
<clipPath id="terminal-line-14">
    <rect x="0" y="343.1" width="976" height="24.65"/>
            </clipPath>
<clipPath id="terminal-line-15">
    <rect x="0" y="367.5" width="976" height="24.65"/>
            </clipPath>
<clipPath id="terminal-line-16">
    <rect x="0" y="391.9" width="976" height="24.65"/>
            </clipPath>
<clipPath id="terminal-line-17">
    <rect x="0" y="416.3" width="976" height="24.65"/>
            </clipPath>
<clipPath id="terminal-line-18">
    <rect x="0" y="440.7" width="976" height="24.65"/>
            </clipPath>
<clipPath id="terminal-line-19">
    <rect x="0" y="465.1" width="976" height="24.65"/>
            </clipPath>
<clipPath id="terminal-line-20">
    <rect x="0" y="489.5" width="976" height="24.65"/>
            </clipPath>
<clipPath id="terminal-line-21">
    <rect x="0" y="513.9" width="976" height="24.65"/>
            </clipPath>
<clipPath id="terminal-line-22">
    <rect x="0" y="538.3" width="976" height="24.65"/>
            </clipPath>
<clipPath id="terminal-line-23">
    <rect x="0" y="562.7" width="976" height="24.65"/>
            </clipPath>
<clipPath id="terminal-line-24">
    <rect x="0" y="587.1" width="976" height="24.65"/>
            </clipPath>
<clipPath id="terminal-line-25">
    <rect x="0" y="611.5" width="976" height="24.65"/>
            </clipPath>
<clipPath id="terminal-line-26">
    <rect x="0" y="635.9" width="976" height="24.65"/>
            </clipPath>
<clipPath id="terminal-line-27">
    <rect x="0" y="660.3" width="976" height="24.65"/>
            </clipPath>
<clipPath id="terminal-line-28">
    <rect x="0" y="684.7" width="976" height="24.65"/>
            </clipPath>
<clipPath id="terminal-line-29">
    <rect x="0" y="709.1" width="976" height="24.65"/>
            </clipPath>
<clipPath id="terminal-line-30">
    <rect x="0" y="733.5" width="976" height="24.65"/>
            </clipPath>
    </defs>

    <rect fill="#292929" stroke="rgba(255,255,255,0.35)" stroke-width="1" x="1" y="1" width="992" height="828.8" rx="8"/><text class="terminal-title" fill="#c5c8c6" text-anchor="middle" x="496" y="27">ConfigHost</text>
            <g transform="translate(26,22)">
            <circle cx="0" cy="0" r="7" fill="#ff5f57"/>
            <circle cx="22" cy="0" r="7" fill="#febc2e"/>
            <circle cx="44" cy="0" r="7" fill="#28c840"/>
            </g>
        
    <g transform="translate(9, 41)" clip-path="url(#terminal-clip-terminal)">
    <rect fill="#0c1013" x="0" y="1.5" width="24.4" height="24.65" shape-rendering="crispEdges"/><rect fill="#0c1013" x="24.4" y="1.5" width="427" height="24.65" shape-rendering="crispEdges"/><rect fill="#0c1013" x="451.4" y="1.5" width="524.6" height="24.65" shape-rendering="crispEdges"/><rect fill="#0c1013" x="0" y="25.9" width="12.2" height="24.65" shape-rendering="crispEdges"/><rect fill="#0c1013" x="12.2" y="25.9" width="24.4" height="24.65" shape-rendering="crispEdges"/><rect fill="#0c1013" x="36.6" y="25.9" width="122" height="24.65" shape-rendering="crispEdges"/><rect fill="#0c1013" x="158.6" y="25.9" width="109.8" height="24.65" shape-rendering="crispEdges"/><rect fill="#0c1013" x="268.4" y="25.9" width="695.4" height="24.65" shape-rendering="crispEdges"/><rect fill="#0c1013" x="963.8" y="25.9" width="12.2" height="24.65" shape-rendering="crispEdges"/><rect fill="#0c1013" x="0" y="50.3" width="12.2" height="24.65" shape-rendering="crispEdges"/><rect fill="#0c1013" x="12.2" y="50.3" width="24.4" height="24.65" shape-rendering="crispEdges"/><rect fill="#0c1013" x="36.6" y="50.3" width="195.2" height="24.65" shape-rendering="crispEdges"/><rect fill="#0c1013" x="231.8" y="50.3" width="341.6" height="24.65" shape-rendering="crispEdges"/><rect fill="#0c1013" x="573.4" y="50.3" width="390.4" height="24.65" shape-rendering="crispEdges"/><rect fill="#0c1013" x="963.8" y="50.3" width="12.2" height="24.65" shape-rendering="crispEdges"/><rect fill="#0c1013" x="0" y="74.7" width="12.2" height="24.65" shape-rendering="crispEdges"/><rect fill="#0c1013" x="12.2" y="74.7" width="24.4" height="24.65" shape-rendering="crispEdges"/><rect fill="#0c1013" x="36.6" y="74.7" width="170.8" height="24.65" shape-rendering="crispEdges"/><rect fill="#0c1013" x="207.4" y="74.7" width="378.2" height="24.65" shape-rendering="crispEdges"/><rect fill="#0c1013" x="585.6" y="74.7" width="378.2" height="24.65" shape-rendering="crispEdges"/><rect fill="#0c1013" x="963.8" y="74.7" width="12.2" height="24.65" shape-rendering="crispEdges"/><rect fill="#0c1013" x="0" y="99.1" width="976" height="24.65" shape-rendering="crispEdges"/><rect fill="#0c1013" x="0" y="123.5" width="976" height="24.65" shape-rendering="crispEdges"/><rect fill="#0c1013" x="0" y="147.9" width="24.4" height="24.65" shape-rendering="crispEdges"/><rect fill="#0c1013" x="24.4" y="147.9" width="378.2" height="24.65" shape-rendering="crispEdges"/><rect fill="#0c1013" x="402.6" y="147.9" width="573.4" height="24.65" shape-rendering="crispEdges"/><rect fill="#0c1013" x="0" y="172.3" width="12.2" height="24.65" shape-rendering="crispEdges"/><rect fill="#0c1013" x="12.2" y="172.3" width="24.4" height="24.65" shape-rendering="crispEdges"/><rect fill="#0c1013" x="36.6" y="172.3" width="500.2" height="24.65" shape-rendering="crispEdges"/><rect fill="#0c1013" x="536.8" y="172.3" width="427" height="24.65" shape-rendering="crispEdges"/><rect fill="#0c1013" x="963.8" y="172.3" width="12.2" height="24.65" shape-rendering="crispEdges"/><rect fill="#0c1013" x="0" y="196.7" width="12.2" height="24.65" shape-rendering="crispEdges"/><rect fill="#0c1013" x="12.2" y="196.7" width="24.4" height="24.65" shape-rendering="crispEdges"/><rect fill="#15191c" x="36.6" y="196.7" width="48.8" height="24.65" shape-rendering="crispEdges"/><rect fill="#15191c" x="85.4" y="196.7" width="268.4" height="24.65" shape-rendering="crispEdges"/><rect fill="#15191c" x="353.8" y="196.7" width="170.8" height="24.65" shape-rendering="crispEdges"/><rect fill="#15191c" x="524.6" y="196.7" width="414.8" height="24.65" shape-rendering="crispEdges"/><rect fill="#0c1013" x="939.4" y="196.7" width="24.4" height="24.65" shape-rendering="crispEdges"/><rect fill="#0c1013" x="963.8" y="196.7" width="12.2" height="24.65" shape-rendering="crispEdges"/><rect fill="#0c1013" x="0" y="221.1" width="12.2" height="24.65" shape-rendering="crispEdges"/><rect fill="#0c1013" x="12.2" y="221.1" width="24.4" height="24.65" shape-rendering="crispEdges"/><rect fill="#82c8dc" x="36.6" y="221.1" width="48.8" height="24.65" shape-rendering="crispEdges"/><rect fill="#82c8dc" x="85.4" y="221.1" width="268.4" height="24.65" shape-rendering="crispEdges"/><rect fill="#82c8dc" x="353.8" y="221.1" width="170.8" height="24.65" shape-rendering="crispEdges"/><rect fill="#82c8dc" x="524.6" y="221.1" width="414.8" height="24.65" shape-rendering="crispEdges"/><rect fill="#0c1013" x="939.4" y="221.1" width="24.4" height="24.65" shape-rendering="crispEdges"/><rect fill="#0c1013" x="963.8" y="221.1" width="12.2" height="24.65" shape-rendering="crispEdges"/><rect fill="#0c1013" x="0" y="245.5" width="12.2" height="24.65" shape-rendering="crispEdges"/><rect fill="#0c1013" x="12.2" y="245.5" width="24.4" height="24.65" shape-rendering="crispEdges"/><rect fill="#15191c" x="36.6" y="245.5" width="12.2" height="24.65" shape-rendering="crispEdges"/><rect fill="#15191c" x="48.8" y="245.5" width="12.2" height="24.65" shape-rendering="crispEdges"/><rect fill="#15191c" x="61" y="245.5" width="24.4" height="24.65" shape-rendering="crispEdges"/><rect fill="#15191c" x="85.4" y="245.5" width="268.4" height="24.65" shape-rendering="crispEdges"/><rect fill="#15191c" x="353.8" y="245.5" width="12.2" height="24.65" shape-rendering="crispEdges"/><rect fill="#15191c" x="366" y="245.5" width="36.6" height="24.65" shape-rendering="crispEdges"/><rect fill="#15191c" x="402.6" y="245.5" width="122" height="24.65" shape-rendering="crispEdges"/><rect fill="#15191c" x="524.6" y="245.5" width="414.8" height="24.65" shape-rendering="crispEdges"/><rect fill="#0c1013" x="939.4" y="245.5" width="24.4" height="24.65" shape-rendering="crispEdges"/><rect fill="#0c1013" x="963.8" y="245.5" width="12.2" height="24.65" shape-rendering="crispEdges"/><rect fill="#0c1013" x="0" y="269.9" width="12.2" height="24.65" shape-rendering="crispEdges"/><rect fill="#0c1013" x="12.2" y="269.9" width="24.4" height="24.65" shape-rendering="crispEdges"/><rect fill="#15191c" x="36.6" y="269.9" width="12.2" height="24.65" shape-rendering="crispEdges"/><rect fill="#15191c" x="48.8" y="269.9" width="12.2" height="24.65" shape-rendering="crispEdges"/><rect fill="#15191c" x="61" y="269.9" width="24.4" height="24.65" shape-rendering="crispEdges"/><rect fill="#15191c" x="85.4" y="269.9" width="268.4" height="24.65" shape-rendering="crispEdges"/><rect fill="#15191c" x="353.8" y="269.9" width="12.2" height="24.65" shape-rendering="crispEdges"/><rect fill="#15191c" x="366" y="269.9" width="146.4" height="24.65" shape-rendering="crispEdges"/><rect fill="#15191c" x="512.4" y="269.9" width="12.2" height="24.65" shape-rendering="crispEdges"/><rect fill="#15191c" x="524.6" y="269.9" width="414.8" height="24.65" shape-rendering="crispEdges"/><rect fill="#0c1013" x="939.4" y="269.9" width="24.4" height="24.65" shape-rendering="crispEdges"/><rect fill="#0c1013" x="963.8" y="269.9" width="12.2" height="24.65" shape-rendering="crispEdges"/><rect fill="#0c1013" x="0" y="294.3" width="12.2" height="24.65" shape-rendering="crispEdges"/><rect fill="#0c1013" x="12.2" y="294.3" width="24.4" height="24.65" shape-rendering="crispEdges"/><rect fill="#15191c" x="36.6" y="294.3" width="12.2" height="24.65" shape-rendering="crispEdges"/><rect fill="#15191c" x="48.8" y="294.3" width="12.2" height="24.65" shape-rendering="crispEdges"/><rect fill="#15191c" x="61" y="294.3" width="24.4" height="24.65" shape-rendering="crispEdges"/><rect fill="#15191c" x="85.4" y="294.3" width="268.4" height="24.65" shape-rendering="crispEdges"/><rect fill="#15191c" x="353.8" y="294.3" width="12.2" height="24.65" shape-rendering="crispEdges"/><rect fill="#15191c" x="366" y="294.3" width="24.4" height="24.65" shape-rendering="crispEdges"/><rect fill="#15191c" x="390.4" y="294.3" width="134.2" height="24.65" shape-rendering="crispEdges"/><rect fill="#15191c" x="524.6" y="294.3" width="414.8" height="24.65" shape-rendering="crispEdges"/><rect fill="#0c1013" x="939.4" y="294.3" width="24.4" height="24.65" shape-rendering="crispEdges"/><rect fill="#0c1013" x="963.8" y="294.3" width="12.2" height="24.65" shape-rendering="crispEdges"/><rect fill="#0c1013" x="0" y="318.7" width="12.2" height="24.65" shape-rendering="crispEdges"/><rect fill="#0c1013" x="12.2" y="318.7" width="24.4" height="24.65" shape-rendering="crispEdges"/><rect fill="#15191c" x="36.6" y="318.7" width="12.2" height="24.65" shape-rendering="crispEdges"/><rect fill="#15191c" x="48.8" y="318.7" width="12.2" height="24.65" shape-rendering="crispEdges"/><rect fill="#15191c" x="61" y="318.7" width="24.4" height="24.65" shape-rendering="crispEdges"/><rect fill="#15191c" x="85.4" y="318.7" width="12.2" height="24.65" shape-rendering="crispEdges"/><rect fill="#15191c" x="97.6" y="318.7" width="183" height="24.65" shape-rendering="crispEdges"/><rect fill="#15191c" x="280.6" y="318.7" width="73.2" height="24.65" shape-rendering="crispEdges"/><rect fill="#15191c" x="353.8" y="318.7" width="12.2" height="24.65" shape-rendering="crispEdges"/><rect fill="#15191c" x="366" y="318.7" width="122" height="24.65" shape-rendering="crispEdges"/><rect fill="#15191c" x="488" y="318.7" width="36.6" height="24.65" shape-rendering="crispEdges"/><rect fill="#15191c" x="524.6" y="318.7" width="414.8" height="24.65" shape-rendering="crispEdges"/><rect fill="#0c1013" x="939.4" y="318.7" width="24.4" height="24.65" shape-rendering="crispEdges"/><rect fill="#0c1013" x="963.8" y="318.7" width="12.2" height="24.65" shape-rendering="crispEdges"/><rect fill="#0c1013" x="0" y="343.1" width="12.2" height="24.65" shape-rendering="crispEdges"/><rect fill="#0c1013" x="12.2" y="343.1" width="24.4" height="24.65" shape-rendering="crispEdges"/><rect fill="#15191c" x="36.6" y="343.1" width="12.2" height="24.65" shape-rendering="crispEdges"/><rect fill="#15191c" x="48.8" y="343.1" width="12.2" height="24.65" shape-rendering="crispEdges"/><rect fill="#15191c" x="61" y="343.1" width="24.4" height="24.65" shape-rendering="crispEdges"/><rect fill="#15191c" x="85.4" y="343.1" width="12.2" height="24.65" shape-rendering="crispEdges"/><rect fill="#15191c" x="97.6" y="343.1" width="146.4" height="24.65" shape-rendering="crispEdges"/><rect fill="#15191c" x="244" y="343.1" width="109.8" height="24.65" shape-rendering="crispEdges"/><rect fill="#15191c" x="353.8" y="343.1" width="12.2" height="24.65" shape-rendering="crispEdges"/><rect fill="#15191c" x="366" y="343.1" width="61" height="24.65" shape-rendering="crispEdges"/><rect fill="#15191c" x="427" y="343.1" width="97.6" height="24.65" shape-rendering="crispEdges"/><rect fill="#15191c" x="524.6" y="343.1" width="414.8" height="24.65" shape-rendering="crispEdges"/><rect fill="#0c1013" x="939.4" y="343.1" width="24.4" height="24.65" shape-rendering="crispEdges"/><rect fill="#0c1013" x="963.8" y="343.1" width="12.2" height="24.65" shape-rendering="crispEdges"/><rect fill="#0c1013" x="0" y="367.5" width="12.2" height="24.65" shape-rendering="crispEdges"/><rect fill="#0c1013" x="12.2" y="367.5" width="24.4" height="24.65" shape-rendering="crispEdges"/><rect fill="#15191c" x="36.6" y="367.5" width="12.2" height="24.65" shape-rendering="crispEdges"/><rect fill="#15191c" x="48.8" y="367.5" width="12.2" height="24.65" shape-rendering="crispEdges"/><rect fill="#15191c" x="61" y="367.5" width="24.4" height="24.65" shape-rendering="crispEdges"/><rect fill="#15191c" x="85.4" y="367.5" width="12.2" height="24.65" shape-rendering="crispEdges"/><rect fill="#15191c" x="97.6" y="367.5" width="207.4" height="24.65" shape-rendering="crispEdges"/><rect fill="#15191c" x="305" y="367.5" width="48.8" height="24.65" shape-rendering="crispEdges"/><rect fill="#15191c" x="353.8" y="367.5" width="12.2" height="24.65" shape-rendering="crispEdges"/><rect fill="#15191c" x="366" y="367.5" width="61" height="24.65" shape-rendering="crispEdges"/><rect fill="#15191c" x="427" y="367.5" width="97.6" height="24.65" shape-rendering="crispEdges"/><rect fill="#15191c" x="524.6" y="367.5" width="414.8" height="24.65" shape-rendering="crispEdges"/><rect fill="#0c1013" x="939.4" y="367.5" width="24.4" height="24.65" shape-rendering="crispEdges"/><rect fill="#0c1013" x="963.8" y="367.5" width="12.2" height="24.65" shape-rendering="crispEdges"/><rect fill="#0c1013" x="0" y="391.9" width="12.2" height="24.65" shape-rendering="crispEdges"/><rect fill="#0c1013" x="12.2" y="391.9" width="24.4" height="24.65" shape-rendering="crispEdges"/><rect fill="#15191c" x="36.6" y="391.9" width="12.2" height="24.65" shape-rendering="crispEdges"/><rect fill="#15191c" x="48.8" y="391.9" width="12.2" height="24.65" shape-rendering="crispEdges"/><rect fill="#15191c" x="61" y="391.9" width="24.4" height="24.65" shape-rendering="crispEdges"/><rect fill="#15191c" x="85.4" y="391.9" width="12.2" height="24.65" shape-rendering="crispEdges"/><rect fill="#15191c" x="97.6" y="391.9" width="244" height="24.65" shape-rendering="crispEdges"/><rect fill="#15191c" x="341.6" y="391.9" width="12.2" height="24.65" shape-rendering="crispEdges"/><rect fill="#15191c" x="353.8" y="391.9" width="12.2" height="24.65" shape-rendering="crispEdges"/><rect fill="#15191c" x="366" y="391.9" width="61" height="24.65" shape-rendering="crispEdges"/><rect fill="#15191c" x="427" y="391.9" width="97.6" height="24.65" shape-rendering="crispEdges"/><rect fill="#15191c" x="524.6" y="391.9" width="414.8" height="24.65" shape-rendering="crispEdges"/><rect fill="#0c1013" x="939.4" y="391.9" width="24.4" height="24.65" shape-rendering="crispEdges"/><rect fill="#0c1013" x="963.8" y="391.9" width="12.2" height="24.65" shape-rendering="crispEdges"/><rect fill="#0c1013" x="0" y="416.3" width="12.2" height="24.65" shape-rendering="crispEdges"/><rect fill="#0c1013" x="12.2" y="416.3" width="24.4" height="24.65" shape-rendering="crispEdges"/><rect fill="#15191c" x="36.6" y="416.3" width="12.2" height="24.65" shape-rendering="crispEdges"/><rect fill="#15191c" x="48.8" y="416.3" width="12.2" height="24.65" shape-rendering="crispEdges"/><rect fill="#15191c" x="61" y="416.3" width="24.4" height="24.65" shape-rendering="crispEdges"/><rect fill="#15191c" x="85.4" y="416.3" width="12.2" height="24.65" shape-rendering="crispEdges"/><rect fill="#15191c" x="97.6" y="416.3" width="170.8" height="24.65" shape-rendering="crispEdges"/><rect fill="#15191c" x="268.4" y="416.3" width="85.4" height="24.65" shape-rendering="crispEdges"/><rect fill="#15191c" x="353.8" y="416.3" width="12.2" height="24.65" shape-rendering="crispEdges"/><rect fill="#15191c" x="366" y="416.3" width="61" height="24.65" shape-rendering="crispEdges"/><rect fill="#15191c" x="427" y="416.3" width="97.6" height="24.65" shape-rendering="crispEdges"/><rect fill="#15191c" x="524.6" y="416.3" width="414.8" height="24.65" shape-rendering="crispEdges"/><rect fill="#0c1013" x="939.4" y="416.3" width="24.4" height="24.65" shape-rendering="crispEdges"/><rect fill="#0c1013" x="963.8" y="416.3" width="12.2" height="24.65" shape-rendering="crispEdges"/><rect fill="#0c1013" x="0" y="440.7" width="12.2" height="24.65" shape-rendering="crispEdges"/><rect fill="#0c1013" x="12.2" y="440.7" width="24.4" height="24.65" shape-rendering="crispEdges"/><rect fill="#15191c" x="36.6" y="440.7" width="12.2" height="24.65" shape-rendering="crispEdges"/><rect fill="#15191c" x="48.8" y="440.7" width="24.4" height="24.65" shape-rendering="crispEdges"/><rect fill="#15191c" x="73.2" y="440.7" width="12.2" height="24.65" shape-rendering="crispEdges"/><rect fill="#15191c" x="85.4" y="440.7" width="12.2" height="24.65" shape-rendering="crispEdges"/><rect fill="#15191c" x="97.6" y="440.7" width="219.6" height="24.65" shape-rendering="crispEdges"/><rect fill="#15191c" x="317.2" y="440.7" width="36.6" height="24.65" shape-rendering="crispEdges"/><rect fill="#15191c" x="353.8" y="440.7" width="12.2" height="24.65" shape-rendering="crispEdges"/><rect fill="#15191c" x="366" y="440.7" width="61" height="24.65" shape-rendering="crispEdges"/><rect fill="#15191c" x="427" y="440.7" width="97.6" height="24.65" shape-rendering="crispEdges"/><rect fill="#15191c" x="524.6" y="440.7" width="414.8" height="24.65" shape-rendering="crispEdges"/><rect fill="#0c1013" x="939.4" y="440.7" width="24.4" height="24.65" shape-rendering="crispEdges"/><rect fill="#0c1013" x="963.8" y="440.7" width="12.2" height="24.65" shape-rendering="crispEdges"/><rect fill="#0c1013" x="0" y="465.1" width="12.2" height="24.65" shape-rendering="crispEdges"/><rect fill="#0c1013" x="12.2" y="465.1" width="24.4" height="24.65" shape-rendering="crispEdges"/><rect fill="#15191c" x="36.6" y="465.1" width="12.2" height="24.65" shape-rendering="crispEdges"/><rect fill="#15191c" x="48.8" y="465.1" width="24.4" height="24.65" shape-rendering="crispEdges"/><rect fill="#15191c" x="73.2" y="465.1" width="12.2" height="24.65" shape-rendering="crispEdges"/><rect fill="#15191c" x="85.4" y="465.1" width="268.4" height="24.65" shape-rendering="crispEdges"/><rect fill="#15191c" x="353.8" y="465.1" width="170.8" height="24.65" shape-rendering="crispEdges"/><rect fill="#15191c" x="524.6" y="465.1" width="414.8" height="24.65" shape-rendering="crispEdges"/><rect fill="#0c1013" x="939.4" y="465.1" width="24.4" height="24.65" shape-rendering="crispEdges"/><rect fill="#0c1013" x="963.8" y="465.1" width="12.2" height="24.65" shape-rendering="crispEdges"/><rect fill="#0c1013" x="0" y="489.5" width="976" height="24.65" shape-rendering="crispEdges"/><rect fill="#0c1013" x="0" y="513.9" width="976" height="24.65" shape-rendering="crispEdges"/><rect fill="#0c1013" x="0" y="538.3" width="976" height="24.65" shape-rendering="crispEdges"/><rect fill="#0c1013" x="0" y="562.7" width="976" height="24.65" shape-rendering="crispEdges"/><rect fill="#0c1013" x="0" y="587.1" width="976" height="24.65" shape-rendering="crispEdges"/><rect fill="#0c1013" x="0" y="611.5" width="976" height="24.65" shape-rendering="crispEdges"/><rect fill="#0c1013" x="0" y="635.9" width="976" height="24.65" shape-rendering="crispEdges"/><rect fill="#0c1013" x="0" y="660.3" width="976" height="24.65" shape-rendering="crispEdges"/><rect fill="#0c1013" x="0" y="684.7" width="976" height="24.65" shape-rendering="crispEdges"/><rect fill="#0c1013" x="0" y="709.1" width="976" height="24.65" shape-rendering="crispEdges"/><rect fill="#0c1013" x="0" y="733.5" width="976" height="24.65" shape-rendering="crispEdges"/><rect fill="#0c1013" x="0" y="757.9" width="12.2" height="24.65" shape-rendering="crispEdges"/><rect fill="#0c1013" x="12.2" y="757.9" width="61" height="24.65" shape-rendering="crispEdges"/><rect fill="#0c1013" x="73.2" y="757.9" width="12.2" height="24.65" shape-rendering="crispEdges"/><rect fill="#0c1013" x="85.4" y="757.9" width="48.8" height="24.65" shape-rendering="crispEdges"/><rect fill="#0c1013" x="134.2" y="757.9" width="36.6" height="24.65" shape-rendering="crispEdges"/><rect fill="#0c1013" x="170.8" y="757.9" width="61" height="24.65" shape-rendering="crispEdges"/><rect fill="#0c1013" x="231.8" y="757.9" width="12.2" height="24.65" shape-rendering="crispEdges"/><rect fill="#0c1013" x="244" y="757.9" width="48.8" height="24.65" shape-rendering="crispEdges"/><rect fill="#0c1013" x="292.8" y="757.9" width="36.6" height="24.65" shape-rendering="crispEdges"/><rect fill="#0c1013" x="329.4" y="757.9" width="12.2" height="24.65" shape-rendering="crispEdges"/><rect fill="#0c1013" x="341.6" y="757.9" width="12.2" height="24.65" shape-rendering="crispEdges"/><rect fill="#0c1013" x="353.8" y="757.9" width="48.8" height="24.65" shape-rendering="crispEdges"/><rect fill="#0c1013" x="402.6" y="757.9" width="36.6" height="24.65" shape-rendering="crispEdges"/><rect fill="#0c1013" x="439.2" y="757.9" width="36.6" height="24.65" shape-rendering="crispEdges"/><rect fill="#0c1013" x="475.8" y="757.9" width="12.2" height="24.65" shape-rendering="crispEdges"/><rect fill="#0c1013" x="488" y="757.9" width="48.8" height="24.65" shape-rendering="crispEdges"/><rect fill="#0c1013" x="536.8" y="757.9" width="439.2" height="24.65" shape-rendering="crispEdges"/>
    <g class="terminal-matrix">
    <text class="terminal-r1" x="0" y="20" textLength="24.4" clip-path="url(#terminal-line-0)">╭─</text><text class="terminal-r2" x="24.4" y="20" textLength="427" clip-path="url(#terminal-line-0)">&#160;[&#160;D&#160;E&#160;V&#160;I&#160;C&#160;E&#160;&#160;&#160;I&#160;D&#160;E&#160;N&#160;T&#160;I&#160;T&#160;Y&#160;]&#160;</text><text class="terminal-r1" x="451.4" y="20" textLength="524.6" clip-path="url(#terminal-line-0)">──────────────────────────────────────────╮</text><text class="terminal-r3" x="976" y="20" textLength="12.2" clip-path="url(#terminal-line-0)">
</text><text class="terminal-r1" x="0" y="44.4" textLength="12.2" clip-path="url(#terminal-line-1)">│</text><text class="terminal-r4" x="36.6" y="44.4" textLength="122" clip-path="url(#terminal-line-1)">MCU&#160;Type:&#160;</text><text class="terminal-r5" x="158.6" y="44.4" textLength="109.8" clip-path="url(#terminal-line-1)">stm32h723</text><text class="terminal-r1" x="963.8" y="44.4" textLength="12.2" clip-path="url(#terminal-line-1)">│</text><text class="terminal-r3" x="976" y="44.4" textLength="12.2" clip-path="url(#terminal-line-1)">
</text><text class="terminal-r1" x="0" y="68.8" textLength="12.2" clip-path="url(#terminal-line-2)">│</text><text class="terminal-r4" x="36.6" y="68.8" textLength="195.2" clip-path="url(#terminal-line-2)">Serial&#160;Pattern:&#160;</text><text class="terminal-r5" x="231.8" y="68.8" textLength="341.6" clip-path="url(#terminal-line-2)">usb-Klipper_stm32h723xx_ABC*</text><text class="terminal-r1" x="963.8" y="68.8" textLength="12.2" clip-path="url(#terminal-line-2)">│</text><text class="terminal-r3" x="976" y="68.8" textLength="12.2" clip-path="url(#terminal-line-2)">
</text><text class="terminal-r1" x="0" y="93.2" textLength="12.2" clip-path="url(#terminal-line-3)">│</text><text class="terminal-r4" x="36.6" y="93.2" textLength="170.8" clip-path="url(#terminal-line-3)">Last&#160;Flashed:&#160;</text><text class="terminal-r5" x="207.4" y="93.2" textLength="378.2" clip-path="url(#terminal-line-3)">2026-02-06&#160;14:30&#160;(152&#160;days&#160;ago)</text><text class="terminal-r1" x="963.8" y="93.2" textLength="12.2" clip-path="url(#terminal-line-3)">│</text><text class="terminal-r3" x="976" y="93.2" textLength="12.2" clip-path="url(#terminal-line-3)">
</text><text class="terminal-r1" x="0" y="117.6" textLength="976" clip-path="url(#terminal-line-4)">╰──────────────────────────────────────────────────────────────────────────────╯</text><text class="terminal-r3" x="976" y="117.6" textLength="12.2" clip-path="url(#terminal-line-4)">
</text><text class="terminal-r3" x="976" y="142" textLength="12.2" clip-path="url(#terminal-line-5)">
</text><text class="terminal-r1" x="0" y="166.4" textLength="24.4" clip-path="url(#terminal-line-6)">╭─</text><text class="terminal-r2" x="24.4" y="166.4" textLength="378.2" clip-path="url(#terminal-line-6)">&#160;[&#160;D&#160;E&#160;V&#160;I&#160;C&#160;E&#160;&#160;&#160;C&#160;O&#160;N&#160;F&#160;I&#160;G&#160;]&#160;</text><text class="terminal-r1" x="402.6" y="166.4" textLength="573.4" clip-path="url(#terminal-line-6)">──────────────────────────────────────────────╮</text><text class="terminal-r3" x="976" y="166.4" textLength="12.2" clip-path="url(#terminal-line-6)">
</text><text class="terminal-r1" x="0" y="190.8" textLength="12.2" clip-path="url(#terminal-line-7)">│</text><text class="terminal-r4" x="36.6" y="190.8" textLength="500.2" clip-path="url(#terminal-line-7)">Select&#160;a&#160;field,&#160;Enter&#160;to&#160;edit,&#160;S&#160;to&#160;save.</text><text class="terminal-r1" x="963.8" y="190.8" textLength="12.2" clip-path="url(#terminal-line-7)">│</text><text class="terminal-r3" x="976" y="190.8" textLength="12.2" clip-path="url(#terminal-line-7)">
</text><text class="terminal-r1" x="0" y="215.2" textLength="12.2" clip-path="url(#terminal-line-8)">│</text><text class="terminal-r6" x="36.6" y="215.2" textLength="48.8" clip-path="url(#terminal-line-8)">&#160;#&#160;&#160;</text><text class="terminal-r6" x="85.4" y="215.2" textLength="268.4" clip-path="url(#terminal-line-8)">&#160;Setting&#160;&#160;&#160;&#160;&#160;&#160;&#160;&#160;&#160;&#160;&#160;&#160;&#160;&#160;</text><text class="terminal-r6" x="353.8" y="215.2" textLength="170.8" clip-path="url(#terminal-line-8)">&#160;Value&#160;&#160;&#160;&#160;&#160;&#160;&#160;&#160;</text><text class="terminal-r1" x="963.8" y="215.2" textLength="12.2" clip-path="url(#terminal-line-8)">│</text><text class="terminal-r3" x="976" y="215.2" textLength="12.2" clip-path="url(#terminal-line-8)">
</text><text class="terminal-r1" x="0" y="239.6" textLength="12.2" clip-path="url(#terminal-line-9)">│</text><text class="terminal-r7" x="36.6" y="239.6" textLength="48.8" clip-path="url(#terminal-line-9)">&#160;1&#160;&#160;</text><text class="terminal-r7" x="85.4" y="239.6" textLength="268.4" clip-path="url(#terminal-line-9)">&#160;Display&#160;name&#160;&#160;&#160;&#160;&#160;&#160;&#160;&#160;&#160;</text><text class="terminal-r7" x="353.8" y="239.6" textLength="170.8" clip-path="url(#terminal-line-9)">&#160;Octopus&#160;Pro&#160;&#160;</text><text class="terminal-r1" x="963.8" y="239.6" textLength="12.2" clip-path="url(#terminal-line-9)">│</text><text class="terminal-r3" x="976" y="239.6" textLength="12.2" clip-path="url(#terminal-line-9)">
</text><text class="terminal-r1" x="0" y="264" textLength="12.2" clip-path="url(#terminal-line-10)">│</text><text class="terminal-r6" x="48.8" y="264" textLength="12.2" clip-path="url(#terminal-line-10)">2</text><text class="terminal-r4" x="85.4" y="264" textLength="268.4" clip-path="url(#terminal-line-10)">&#160;Klipper&#160;MCU&#160;name&#160;&#160;&#160;&#160;&#160;</text><text class="terminal-r5" x="366" y="264" textLength="36.6" clip-path="url(#terminal-line-10)">mcu</text><text class="terminal-r1" x="963.8" y="264" textLength="12.2" clip-path="url(#terminal-line-10)">│</text><text class="terminal-r3" x="976" y="264" textLength="12.2" clip-path="url(#terminal-line-10)">
</text><text class="terminal-r1" x="0" y="288.4" textLength="12.2" clip-path="url(#terminal-line-11)">│</text><text class="terminal-r6" x="48.8" y="288.4" textLength="12.2" clip-path="url(#terminal-line-11)">3</text><text class="terminal-r4" x="85.4" y="288.4" textLength="268.4" clip-path="url(#terminal-line-11)">&#160;Flash&#160;method&#160;&#160;&#160;&#160;&#160;&#160;&#160;&#160;&#160;</text><text class="terminal-r5" x="366" y="288.4" textLength="146.4" clip-path="url(#terminal-line-11)">Katapult&#160;USB</text><text class="terminal-r1" x="963.8" y="288.4" textLength="12.2" clip-path="url(#terminal-line-11)">│</text><text class="terminal-r3" x="976" y="288.4" textLength="12.2" clip-path="url(#terminal-line-11)">
</text><text class="terminal-r1" x="0" y="312.8" textLength="12.2" clip-path="url(#terminal-line-12)">│</text><text class="terminal-r6" x="48.8" y="312.8" textLength="12.2" clip-path="url(#terminal-line-12)">4</text><text class="terminal-r4" x="85.4" y="312.8" textLength="268.4" clip-path="url(#terminal-line-12)">&#160;Include&#160;in&#160;flash&#160;&#160;&#160;&#160;&#160;</text><text class="terminal-r8" x="366" y="312.8" textLength="24.4" clip-path="url(#terminal-line-12)">On</text><text class="terminal-r1" x="963.8" y="312.8" textLength="12.2" clip-path="url(#terminal-line-12)">│</text><text class="terminal-r3" x="976" y="312.8" textLength="12.2" clip-path="url(#terminal-line-12)">
</text><text class="terminal-r1" x="0" y="337.2" textLength="12.2" clip-path="url(#terminal-line-13)">│</text><text class="terminal-r9" x="48.8" y="337.2" textLength="12.2" clip-path="url(#terminal-line-13)">5</text><text class="terminal-r9" x="97.6" y="337.2" textLength="183" clip-path="url(#terminal-line-13)">CAN&#160;device&#160;role</text><text class="terminal-r9" x="366" y="337.2" textLength="122" clip-path="url(#terminal-line-13)">(CAN&#160;only)</text><text class="terminal-r1" x="963.8" y="337.2" textLength="12.2" clip-path="url(#terminal-line-13)">│</text><text class="terminal-r3" x="976" y="337.2" textLength="12.2" clip-path="url(#terminal-line-13)">
</text><text class="terminal-r1" x="0" y="361.6" textLength="12.2" clip-path="url(#terminal-line-14)">│</text><text class="terminal-r9" x="48.8" y="361.6" textLength="12.2" clip-path="url(#terminal-line-14)">6</text><text class="terminal-r9" x="97.6" y="361.6" textLength="146.4" clip-path="url(#terminal-line-14)">CAN&#160;bus&#160;UUID</text><text class="terminal-r9" x="366" y="361.6" textLength="61" clip-path="url(#terminal-line-14)">(n/a)</text><text class="terminal-r1" x="963.8" y="361.6" textLength="12.2" clip-path="url(#terminal-line-14)">│</text><text class="terminal-r3" x="976" y="361.6" textLength="12.2" clip-path="url(#terminal-line-14)">
</text><text class="terminal-r1" x="0" y="386" textLength="12.2" clip-path="url(#terminal-line-15)">│</text><text class="terminal-r9" x="48.8" y="386" textLength="12.2" clip-path="url(#terminal-line-15)">7</text><text class="terminal-r9" x="97.6" y="386" textLength="207.4" clip-path="url(#terminal-line-15)">CAN&#160;bus&#160;interface</text><text class="terminal-r9" x="366" y="386" textLength="61" clip-path="url(#terminal-line-15)">(n/a)</text><text class="terminal-r1" x="963.8" y="386" textLength="12.2" clip-path="url(#terminal-line-15)">│</text><text class="terminal-r3" x="976" y="386" textLength="12.2" clip-path="url(#terminal-line-15)">
</text><text class="terminal-r1" x="0" y="410.4" textLength="12.2" clip-path="url(#terminal-line-16)">│</text><text class="terminal-r9" x="48.8" y="410.4" textLength="12.2" clip-path="url(#terminal-line-16)">8</text><text class="terminal-r9" x="97.6" y="410.4" textLength="244" clip-path="url(#terminal-line-16)">Bootloader&#160;baud&#160;rate</text><text class="terminal-r9" x="366" y="410.4" textLength="61" clip-path="url(#terminal-line-16)">(n/a)</text><text class="terminal-r1" x="963.8" y="410.4" textLength="12.2" clip-path="url(#terminal-line-16)">│</text><text class="terminal-r3" x="976" y="410.4" textLength="12.2" clip-path="url(#terminal-line-16)">
</text><text class="terminal-r1" x="0" y="434.8" textLength="12.2" clip-path="url(#terminal-line-17)">│</text><text class="terminal-r9" x="48.8" y="434.8" textLength="12.2" clip-path="url(#terminal-line-17)">9</text><text class="terminal-r9" x="97.6" y="434.8" textLength="170.8" clip-path="url(#terminal-line-17)">UF2&#160;mount&#160;path</text><text class="terminal-r9" x="366" y="434.8" textLength="61" clip-path="url(#terminal-line-17)">(n/a)</text><text class="terminal-r1" x="963.8" y="434.8" textLength="12.2" clip-path="url(#terminal-line-17)">│</text><text class="terminal-r3" x="976" y="434.8" textLength="12.2" clip-path="url(#terminal-line-17)">
</text><text class="terminal-r1" x="0" y="459.2" textLength="12.2" clip-path="url(#terminal-line-18)">│</text><text class="terminal-r9" x="48.8" y="459.2" textLength="24.4" clip-path="url(#terminal-line-18)">10</text><text class="terminal-r9" x="97.6" y="459.2" textLength="219.6" clip-path="url(#terminal-line-18)">SD&#160;card&#160;board&#160;name</text><text class="terminal-r9" x="366" y="459.2" textLength="61" clip-path="url(#terminal-line-18)">(n/a)</text><text class="terminal-r1" x="963.8" y="459.2" textLength="12.2" clip-path="url(#terminal-line-18)">│</text><text class="terminal-r3" x="976" y="459.2" textLength="12.2" clip-path="url(#terminal-line-18)">
</text><text class="terminal-r1" x="0" y="483.6" textLength="12.2" clip-path="url(#terminal-line-19)">│</text><text class="terminal-r6" x="48.8" y="483.6" textLength="24.4" clip-path="url(#terminal-line-19)">11</text><text class="terminal-r4" x="85.4" y="483.6" textLength="268.4" clip-path="url(#terminal-line-19)">&#160;Notes&#160;&#160;&#160;&#160;&#160;&#160;&#160;&#160;&#160;&#160;&#160;&#160;&#160;&#160;&#160;&#160;</text><text class="terminal-r1" x="963.8" y="483.6" textLength="12.2" clip-path="url(#terminal-line-19)">│</text><text class="terminal-r3" x="976" y="483.6" textLength="12.2" clip-path="url(#terminal-line-19)">
</text><text class="terminal-r1" x="0" y="508" textLength="976" clip-path="url(#terminal-line-20)">╰──────────────────────────────────────────────────────────────────────────────╯</text><text class="terminal-r3" x="976" y="508" textLength="12.2" clip-path="url(#terminal-line-20)">
</text><text class="terminal-r3" x="976" y="532.4" textLength="12.2" clip-path="url(#terminal-line-21)">
</text><text class="terminal-r3" x="976" y="556.8" textLength="12.2" clip-path="url(#terminal-line-22)">
</text><text class="terminal-r3" x="976" y="581.2" textLength="12.2" clip-path="url(#terminal-line-23)">
</text><text class="terminal-r3" x="976" y="605.6" textLength="12.2" clip-path="url(#terminal-line-24)">
</text><text class="terminal-r3" x="976" y="630" textLength="12.2" clip-path="url(#terminal-line-25)">
</text><text class="terminal-r3" x="976" y="654.4" textLength="12.2" clip-path="url(#terminal-line-26)">
</text><text class="terminal-r3" x="976" y="678.8" textLength="12.2" clip-path="url(#terminal-line-27)">
</text><text class="terminal-r3" x="976" y="703.2" textLength="12.2" clip-path="url(#terminal-line-28)">
</text><text class="terminal-r3" x="976" y="727.6" textLength="12.2" clip-path="url(#terminal-line-29)">
</text><text class="terminal-r3" x="976" y="752" textLength="12.2" clip-path="url(#terminal-line-30)">
</text><text class="terminal-r2" x="12.2" y="776.4" textLength="61" clip-path="url(#terminal-line-31)">Up/Dn</text><text class="terminal-r9" x="85.4" y="776.4" textLength="48.8" clip-path="url(#terminal-line-31)">Move</text><text class="terminal-r2" x="170.8" y="776.4" textLength="61" clip-path="url(#terminal-line-31)">Enter</text><text class="terminal-r9" x="244" y="776.4" textLength="48.8" clip-path="url(#terminal-line-31)">Edit</text><text class="terminal-r2" x="329.4" y="776.4" textLength="12.2" clip-path="url(#terminal-line-31)">S</text><text class="terminal-r9" x="353.8" y="776.4" textLength="48.8" clip-path="url(#terminal-line-31)">Save</text><text class="terminal-r2" x="439.2" y="776.4" textLength="36.6" clip-path="url(#terminal-line-31)">Esc</text><text class="terminal-r9" x="488" y="776.4" textLength="48.8" clip-path="url(#terminal-line-31)">Back</text>
    </g>
    </g>
</svg>
