<svg class="rich-terminal" viewBox="0 0 994 1026.0" xmlns="http://www.w3.org/2000/svg">
    <!-- Generated with Rich https://www.textualize.io -->
    <style>

    @font-face {
        font-family: "Fira Code";
        src: local("FiraCode-Regular"),
                url("https://cdnjs.cloudflare.com/ajax/libs/firacode/6.2.0/woff2/FiraCode-Regular.woff2") format("woff2"),
                url("https://cdnjs.cloudflare.com/ajax/libs/firacode/6.2.0/woff/FiraCode-Regular.woff") format("woff");
        font-style: normal;
        font-weight: 400;
    }
    @font-face {
        font-family: "Fira Code";
        src: local("FiraCode-Bold"),
                url("https://cdnjs.cloudflare.com/ajax/libs/firacode/6.2.0/woff2/FiraCode-Bold.woff2") format("woff2"),
                url("https://cdnjs.cloudflare.com/ajax/libs/firacode/6.2.0/woff/FiraCode-Bold.woff") format("woff");
        font-style: bold;
        font-weight: 700;
    }

    .terminal-matrix {
        font-family: Fira Code, monospace;
        font-size: 20px;
        line-height: 24.4px;
        font-variant-east-asian: full-width;
    }

    .terminal-title {
        font-size: 18px;
        font-weight: bold;
        font-family: arial;
    }

    .terminal-r1 { fill: #64a0b4 }
.terminal-r2 { fill: #82c8dc;font-weight: bold }
.terminal-r3 { fill: #c5c8c6 }
.terminal-r4 { fill: #c8d2d7 }
.terminal-r5 { fill: #50c878 }
.terminal-r6 { fill: #dce1e6 }
.terminal-r7 { fill: #8cb4a0 }
.terminal-r8 { fill: #0c1013 }
.terminal-r9 { fill: #647882 }
.terminal-r10 { fill: #a096c8 }
.terminal-r11 { fill: #c88c3c }
.terminal-r12 { fill: #49575f }
.terminal-r13 { fill: #15191c }
.terminal-r14 { fill: #345058 }
    </style>

    <defs>
    <clipPath id="terminal-clip-terminal">
      <rect x="0" y="0" width="975.0" height="975.0" />
    </clipPath>
    <clipPath id="terminal-line-0">
    <rect x="0" y="1.5" width="976" height="24.65"/>
            </clipPath>
<clipPath id="terminal-line-1">
    <rect x="0" y="25.9" width="976" height="24.65"/>
            </clipPath>
<clipPath id="terminal-line-2">
    <rect x="0" y="50.3" width="976" height="24.65"/>
            </clipPath>
<clipPath id="terminal-line-3">
    <rect x="0" y="74.7" width="976" height="24.65"/>
            </clipPath>
<clipPath id="terminal-line-4">
    <rect x="0" y="99.1" width="976" height="24.65"/>
            </clipPath>
<clipPath id="terminal-line-5">
    <rect x="0" y="123.5" width="976" height="24.65"/>
            </clipPath>
<clipPath id="terminal-line-6">
    <rect x="0" y="147.9" width="976" height="24.65"/>
            </clipPath>
<clipPath id="terminal-line-7">
    <rect x="0" y="172.3" width="976" height="24.65"/>
            </clipPath>
<clipPath id="terminal-line-8">
    <rect x="0" y="196.7" width="976" height="24.65"/>
            </clipPath>
<clipPath id="terminal-line-9">
    <rect x="0" y="221.1" width="976" height="24.65"/>
            </clipPath>
<clipPath id="terminal-line-10">
    <rect x="0" y="245.5" width="976" height="24.65"/>
            </clipPath>
<clipPath id="terminal-line-11">
    <rect x="0" y="269.9" width="976" height="24.65"/>
            </clipPath>
<clipPath id="terminal-line-12">
    <rect x="0" y="294.3" width="976" height="24.65"/>
            </clipPath>
<clipPath id="terminal-line-13">
    <rect x="0" y="318.7" width="976" height="24.65"/>
            </clipPath>
<clipPath id="terminal-line-14">
    <rect x="0" y="343.1" width="976" height="24.65"/>
            </clipPath>
<clipPath id="terminal-line-15">
    <rect x="0" y="367.5" width="976" height="24.65"/>
            </clipPath>
<clipPath id="terminal-line-16">
    <rect x="0" y="391.9" width="976" height="24.65"/>
            </clipPath>
<clipPath id="terminal-line-17">
    <rect x="0" y="416.3" width="976" height="24.65"/>
            </clipPath>
<clipPath id="terminal-line-18">
    <rect x="0" y="440.7" width="976" height="24.65"/>
            </clipPath>
<clipPath id="terminal-line-19">
    <rect x="0" y="465.1" width="976" height="24.65"/>
            </clipPath>
<clipPath id="terminal-line-20">
    <rect x="0" y="489.5" width="976" height="24.65"/>
            </clipPath>
<clipPath id="terminal-line-21">
    <rect x="0" y="513.9" width="976" height="24.65"/>
            </clipPath>
<clipPath id="terminal-line-22">
    <rect x="0" y="538.3" width="976" height="24.65"/>
            </clipPath>
<clipPath id="terminal-line-23">
    <rect x="0" y="562.7" width="976" height="24.65"/>
            </clipPath>
<clipPath id="terminal-line-24">
    <rect x="0" y="587.1" width="976" height="24.65"/>
            </clipPath>
<clipPath id="terminal-line-25">
    <rect x="0" y="611.5" width="976" height="24.65"/>
            </clipPath>
<clipPath id="terminal-line-26">
    <rect x="0" y="635.9" width="976" height="24.65"/>
            </clipPath>
<clipPath id="terminal-line-27">
    <rect x="0" y="660.3" width="976" height="24.65"/>
            </clipPath>
<clipPath id="terminal-line-28">
    <rect x="0" y="684.7" width="976" height="24.65"/>
            </clipPath>
<clipPath id="terminal-line-29">
    <rect x="0" y="709.1" width="976" height="24.65"/>
            </clipPath>
<clipPath id="terminal-line-30">
    <rect x="0" y="733.5" width="976" height="24.65"/>
            </clipPath>
<clipPath id="terminal-line-31">
    <rect x="0" y="757.9" width="976" height="24.65"/>
            </clipPath>
<clipPath id="terminal-line-32">
    <rect x="0" y="782.3" width="976" height="24.65"/>
            </clipPath>
<clipPath id="terminal-line-33">
    <rect x="0" y="806.7" width="976" height="24.65"/>
            </clipPath>
<clipPath id="terminal-line-34">
    <rect x="0" y="831.1" width="976" height="24.65"/>
            </clipPath>
<clipPath id="terminal-line-35">
    <rect x="0" y="855.5" width="976" height="24.65"/>
            </clipPath>
<clipPath id="terminal-line-36">
    <rect x="0" y="879.9" width="976" height="24.65"/>
            </clipPath>
<clipPath id="terminal-line-37">
    <rect x="0" y="904.3" width="976" height="24.65"/>
            </clipPath>
<clipPath id="terminal-line-38">
    <rect x="0" y="928.7" width="976" height="24.65"/>
            </clipPath>
    </defs>

    <rect fill="#292929" stroke="rgba(255,255,255,0.35)" stroke-width="1" x="1" y="1" width="992" height="1024" rx="8"/><text class="terminal-title" fill="#c5c8c6" text-anchor="middle" x="496" y="27">kflash</text>
            <g transform="translate(26,22)">
            <circle cx="0" cy="0" r="7" fill="#ff5f57"/>
            <circle cx="22" cy="0" r="7" fill="#febc2e"/>
            <circle cx="44" cy="0" r="7" fill="#28c840"/>
            </g>
        
    <g transform="translate(9, 41)" clip-path="url(#terminal-clip-terminal)">
    <rect fill="#0c1013" x="0" y="1.5" width="24.4" height="24.65" shape-rendering="crispEdges"/><rect fill="#0c1013" x="24.4" y="1.5" width="207.4" height="24.65" shape-rendering="crispEdges"/><rect fill="#0c1013" x="231.8" y="1.5" width="744.2" height="24.65" shape-rendering="crispEdges"/><rect fill="#0c1013" x="0" y="25.9" width="12.2" height="24.65" shape-rendering="crispEdges"/><rect fill="#0c1013" x="12.2" y="25.9" width="24.4" height="24.65" shape-rendering="crispEdges"/><rect fill="#0c1013" x="36.6" y="25.9" width="402.6" height="24.65" shape-rendering="crispEdges"/><rect fill="#0c1013" x="439.2" y="25.9" width="524.6" height="24.65" shape-rendering="crispEdges"/><rect fill="#0c1013" x="963.8" y="25.9" width="12.2" height="24.65" shape-rendering="crispEdges"/><rect fill="#0c1013" x="0" y="50.3" width="12.2" height="24.65" shape-rendering="crispEdges"/><rect fill="#0c1013" x="12.2" y="50.3" width="24.4" height="24.65" shape-rendering="crispEdges"/><rect fill="#0c1013" x="36.6" y="50.3" width="109.8" height="24.65" shape-rendering="crispEdges"/><rect fill="#0c1013" x="146.4" y="50.3" width="85.4" height="24.65" shape-rendering="crispEdges"/><rect fill="#0c1013" x="231.8" y="50.3" width="48.8" height="24.65" shape-rendering="crispEdges"/><rect fill="#0c1013" x="280.6" y="50.3" width="134.2" height="24.65" shape-rendering="crispEdges"/><rect fill="#0c1013" x="414.8" y="50.3" width="85.4" height="24.65" shape-rendering="crispEdges"/><rect fill="#0c1013" x="500.2" y="50.3" width="463.6" height="24.65" shape-rendering="crispEdges"/><rect fill="#0c1013" x="963.8" y="50.3" width="12.2" height="24.65" shape-rendering="crispEdges"/><rect fill="#0c1013" x="0" y="74.7" width="12.2" height="24.65" shape-rendering="crispEdges"/><rect fill="#0c1013" x="12.2" y="74.7" width="24.4" height="24.65" shape-rendering="crispEdges"/><rect fill="#0c1013" x="36.6" y="74.7" width="73.2" height="24.65" shape-rendering="crispEdges"/><rect fill="#0c1013" x="109.8" y="74.7" width="207.4" height="24.65" shape-rendering="crispEdges"/><rect fill="#0c1013" x="317.2" y="74.7" width="646.6" height="24.65" shape-rendering="crispEdges"/><rect fill="#0c1013" x="963.8" y="74.7" width="12.2" height="24.65" shape-rendering="crispEdges"/><rect fill="#0c1013" x="0" y="99.1" width="976" height="24.65" shape-rendering="crispEdges"/><rect fill="#0c1013" x="0" y="123.5" width="976" height="24.65" shape-rendering="crispEdges"/><rect fill="#0c1013" x="0" y="147.9" width="24.4" height="24.65" shape-rendering="crispEdges"/><rect fill="#0c1013" x="24.4" y="147.9" width="231.8" height="24.65" shape-rendering="crispEdges"/><rect fill="#0c1013" x="256.2" y="147.9" width="719.8" height="24.65" shape-rendering="crispEdges"/><rect fill="#0c1013" x="0" y="172.3" width="12.2" height="24.65" shape-rendering="crispEdges"/><rect fill="#0c1013" x="12.2" y="172.3" width="24.4" height="24.65" shape-rendering="crispEdges"/><rect fill="#15191c" x="36.6" y="172.3" width="36.6" height="24.65" shape-rendering="crispEdges"/><rect fill="#15191c" x="73.2" y="172.3" width="378.2" height="24.65" shape-rendering="crispEdges"/><rect fill="#15191c" x="451.4" y="172.3" width="134.2" height="24.65" shape-rendering="crispEdges"/><rect fill="#15191c" x="585.6" y="172.3" width="146.4" height="24.65" shape-rendering="crispEdges"/><rect fill="#15191c" x="732" y="172.3" width="134.2" height="24.65" shape-rendering="crispEdges"/><rect fill="#15191c" x="866.2" y="172.3" width="73.2" height="24.65" shape-rendering="crispEdges"/><rect fill="#0c1013" x="939.4" y="172.3" width="24.4" height="24.65" shape-rendering="crispEdges"/><rect fill="#0c1013" x="963.8" y="172.3" width="12.2" height="24.65" shape-rendering="crispEdges"/><rect fill="#0c1013" x="0" y="196.7" width="12.2" height="24.65" shape-rendering="crispEdges"/><rect fill="#0c1013" x="12.2" y="196.7" width="24.4" height="24.65" shape-rendering="crispEdges"/><rect fill="#82c8dc" x="36.6" y="196.7" width="36.6" height="24.65" shape-rendering="crispEdges"/><rect fill="#82c8dc" x="73.2" y="196.7" width="378.2" height="24.65" shape-rendering="crispEdges"/><rect fill="#82c8dc" x="451.4" y="196.7" width="134.2" height="24.65" shape-rendering="crispEdges"/><rect fill="#82c8dc" x="585.6" y="196.7" width="146.4" height="24.65" shape-rendering="crispEdges"/><rect fill="#82c8dc" x="732" y="196.7" width="134.2" height="24.65" shape-rendering="crispEdges"/><rect fill="#82c8dc" x="866.2" y="196.7" width="73.2" height="24.65" shape-rendering="crispEdges"/><rect fill="#0c1013" x="939.4" y="196.7" width="24.4" height="24.65" shape-rendering="crispEdges"/><rect fill="#0c1013" x="963.8" y="196.7" width="12.2" height="24.65" shape-rendering="crispEdges"/><rect fill="#0c1013" x="0" y="221.1" width="12.2" height="24.65" shape-rendering="crispEdges"/><rect fill="#0c1013" x="12.2" y="221.1" width="24.4" height="24.65" shape-rendering="crispEdges"/><rect fill="#15191c" x="36.6" y="221.1" width="12.2" height="24.65" shape-rendering="crispEdges"/><rect fill="#15191c" x="48.8" y="221.1" width="12.2" height="24.65" shape-rendering="crispEdges"/><rect fill="#15191c" x="61" y="221.1" width="12.2" height="24.65" shape-rendering="crispEdges"/><rect fill="#15191c" x="73.2" y="221.1" width="12.2" height="24.65" shape-rendering="crispEdges"/><rect fill="#15191c" x="85.4" y="221.1" width="207.4" height="24.65" shape-rendering="crispEdges"/><rect fill="#15191c" x="292.8" y="221.1" width="158.6" height="24.65" shape-rendering="crispEdges"/><rect fill="#15191c" x="451.4" y="221.1" width="12.2" height="24.65" shape-rendering="crispEdges"/><rect fill="#15191c" x="463.6" y="221.1" width="109.8" height="24.65" shape-rendering="crispEdges"/><rect fill="#15191c" x="573.4" y="221.1" width="12.2" height="24.65" shape-rendering="crispEdges"/><rect fill="#15191c" x="585.6" y="221.1" width="12.2" height="24.65" shape-rendering="crispEdges"/><rect fill="#15191c" x="597.8" y="221.1" width="122" height="24.65" shape-rendering="crispEdges"/><rect fill="#15191c" x="719.8" y="221.1" width="12.2" height="24.65" shape-rendering="crispEdges"/><rect fill="#15191c" x="732" y="221.1" width="12.2" height="24.65" shape-rendering="crispEdges"/><rect fill="#15191c" x="744.2" y="221.1" width="97.6" height="24.65" shape-rendering="crispEdges"/><rect fill="#15191c" x="841.8" y="221.1" width="24.4" height="24.65" shape-rendering="crispEdges"/><rect fill="#15191c" x="866.2" y="221.1" width="12.2" height="24.65" shape-rendering="crispEdges"/><rect fill="#15191c" x="878.4" y="221.1" width="12.2" height="24.65" shape-rendering="crispEdges"/><rect fill="#15191c" x="890.6" y="221.1" width="48.8" height="24.65" shape-rendering="crispEdges"/><rect fill="#0c1013" x="939.4" y="221.1" width="24.4" height="24.65" shape-rendering="crispEdges"/><rect fill="#0c1013" x="963.8" y="221.1" width="12.2" height="24.65" shape-rendering="crispEdges"/><rect fill="#0c1013" x="0" y="245.5" width="12.2" height="24.65" shape-rendering="crispEdges"/><rect fill="#0c1013" x="12.2" y="245.5" width="24.4" height="24.65" shape-rendering="crispEdges"/><rect fill="#15191c" x="36.6" y="245.5" width="12.2" height="24.65" shape-rendering="crispEdges"/><rect fill="#15191c" x="48.8" y="245.5" width="12.2" height="24.65" shape-rendering="crispEdges"/><rect fill="#15191c" x="61" y="245.5" width="12.2" height="24.65" shape-rendering="crispEdges"/><rect fill="#15191c" x="73.2" y="245.5" width="12.2" height="24.65" shape-rendering="crispEdges"/><rect fill="#15191c" x="85.4" y="245.5" width="353.8" height="24.65" shape-rendering="crispEdges"/><rect fill="#15191c" x="439.2" y="245.5" width="12.2" height="24.65" shape-rendering="crispEdges"/><rect fill="#15191c" x="451.4" y="245.5" width="12.2" height="24.65" shape-rendering="crispEdges"/><rect fill="#15191c" x="463.6" y="245.5" width="73.2" height="24.65" shape-rendering="crispEdges"/><rect fill="#15191c" x="536.8" y="245.5" width="48.8" height="24.65" shape-rendering="crispEdges"/><rect fill="#15191c" x="585.6" y="245.5" width="12.2" height="24.65" shape-rendering="crispEdges"/><rect fill="#15191c" x="597.8" y="245.5" width="12.2" height="24.65" shape-rendering="crispEdges"/><rect fill="#15191c" x="610" y="245.5" width="122" height="24.65" shape-rendering="crispEdges"/><rect fill="#15191c" x="732" y="245.5" width="12.2" height="24.65" shape-rendering="crispEdges"/><rect fill="#15191c" x="744.2" y="245.5" width="36.6" height="24.65" shape-rendering="crispEdges"/><rect fill="#15191c" x="780.8" y="245.5" width="85.4" height="24.65" shape-rendering="crispEdges"/><rect fill="#15191c" x="866.2" y="245.5" width="12.2" height="24.65" shape-rendering="crispEdges"/><rect fill="#15191c" x="878.4" y="245.5" width="12.2" height="24.65" shape-rendering="crispEdges"/><rect fill="#15191c" x="890.6" y="245.5" width="48.8" height="24.65" shape-rendering="crispEdges"/><rect fill="#0c1013" x="939.4" y="245.5" width="24.4" height="24.65" shape-rendering="crispEdges"/><rect fill="#0c1013" x="963.8" y="245.5" width="12.2" height="24.65" shape-rendering="crispEdges"/><rect fill="#0c1013" x="0" y="269.9" width="12.2" height="24.65" shape-rendering="crispEdges"/><rect fill="#0c1013" x="12.2" y="269.9" width="24.4" height="24.65" shape-rendering="crispEdges"/><rect fill="#15191c" x="36.6" y="269.9" width="36.6" height="24.65" shape-rendering="crispEdges"/><rect fill="#15191c" x="73.2" y="269.9" width="12.2" height="24.65" shape-rendering="crispEdges"/><rect fill="#15191c" x="85.4" y="269.9" width="256.2" height="24.65" shape-rendering="crispEdges"/><rect fill="#15191c" x="341.6" y="269.9" width="109.8" height="24.65" shape-rendering="crispEdges"/><rect fill="#15191c" x="451.4" y="269.9" width="12.2" height="24.65" shape-rendering="crispEdges"/><rect fill="#15191c" x="463.6" y="269.9" width="12.2" height="24.65" shape-rendering="crispEdges"/><rect fill="#15191c" x="475.8" y="269.9" width="109.8" height="24.65" shape-rendering="crispEdges"/><rect fill="#15191c" x="585.6" y="269.9" width="12.2" height="24.65" shape-rendering="crispEdges"/><rect fill="#15191c" x="597.8" y="269.9" width="12.2" height="24.65" shape-rendering="crispEdges"/><rect fill="#15191c" x="610" y="269.9" width="122" height="24.65" shape-rendering="crispEdges"/><rect fill="#15191c" x="732" y="269.9" width="12.2" height="24.65" shape-rendering="crispEdges"/><rect fill="#15191c" x="744.2" y="269.9" width="85.4" height="24.65" shape-rendering="crispEdges"/><rect fill="#15191c" x="829.6" y="269.9" width="36.6" height="24.65" shape-rendering="crispEdges"/><rect fill="#15191c" x="866.2" y="269.9" width="12.2" height="24.65" shape-rendering="crispEdges"/><rect fill="#15191c" x="878.4" y="269.9" width="61" height="24.65" shape-rendering="crispEdges"/><rect fill="#0c1013" x="939.4" y="269.9" width="24.4" height="24.65" shape-rendering="crispEdges"/><rect fill="#0c1013" x="963.8" y="269.9" width="12.2" height="24.65" shape-rendering="crispEdges"/><rect fill="#0c1013" x="0" y="294.3" width="12.2" height="24.65" shape-rendering="crispEdges"/><rect fill="#0c1013" x="12.2" y="294.3" width="24.4" height="24.65" shape-rendering="crispEdges"/><rect fill="#345058" x="36.6" y="294.3" width="756.4" height="24.65" shape-rendering="crispEdges"/><rect fill="#000000" x="793" y="294.3" width="12.2" height="24.65" shape-rendering="crispEdges"/><rect fill="#000000" x="805.2" y="294.3" width="134.2" height="24.65" shape-rendering="crispEdges"/><rect fill="#0c1013" x="939.4" y="294.3" width="24.4" height="24.65" shape-rendering="crispEdges"/><rect fill="#0c1013" x="963.8" y="294.3" width="12.2" height="24.65" shape-rendering="crispEdges"/><rect fill="#0c1013" x="0" y="318.7" width="976" height="24.65" shape-rendering="crispEdges"/><rect fill="#0c1013" x="0" y="343.1" width="976" height="24.65" shape-rendering="crispEdges"/><rect fill="#0c1013" x="0" y="367.5" width="976" height="24.65" shape-rendering="crispEdges"/><rect fill="#0c1013" x="0" y="391.9" width="976" height="24.65" shape-rendering="crispEdges"/><rect fill="#0c1013" x="0" y="416.3" width="976" height="24.65" shape-rendering="crispEdges"/><rect fill="#0c1013" x="0" y="440.7" width="976" height="24.65" shape-rendering="crispEdges"/><rect fill="#0c1013" x="0" y="465.1" width="976" height="24.65" shape-rendering="crispEdges"/><rect fill="#0c1013" x="0" y="489.5" width="976" height="24.65" shape-rendering="crispEdges"/><rect fill="#0c1013" x="0" y="513.9" width="976" height="24.65" shape-rendering="crispEdges"/><rect fill="#0c1013" x="0" y="538.3" width="976" height="24.65" shape-rendering="crispEdges"/><rect fill="#0c1013" x="0" y="562.7" width="976" height="24.65" shape-rendering="crispEdges"/><rect fill="#0c1013" x="0" y="587.1" width="976" height="24.65" shape-rendering="crispEdges"/><rect fill="#0c1013" x="0" y="611.5" width="976" height="24.65" shape-rendering="crispEdges"/><rect fill="#0c1013" x="0" y="635.9" width="976" height="24.65" shape-rendering="crispEdges"/><rect fill="#0c1013" x="0" y="660.3" width="976" height="24.65" shape-rendering="crispEdges"/><rect fill="#0c1013" x="0" y="684.7" width="976" height="24.65" shape-rendering="crispEdges"/><rect fill="#0c1013" x="0" y="709.1" width="976" height="24.65" shape-rendering="crispEdges"/><rect fill="#0c1013" x="0" y="733.5" width="976" height="24.65" shape-rendering="crispEdges"/><rect fill="#0c1013" x="0" y="757.9" width="976" height="24.65" shape-rendering="crispEdges"/><rect fill="#0c1013" x="0" y="782.3" width="976" height="24.65" shape-rendering="crispEdges"/><rect fill="#0c1013" x="0" y="806.7" width="976" height="24.65" shape-rendering="crispEdges"/><rect fill="#0c1013" x="0" y="831.1" width="976" height="24.65" shape-rendering="crispEdges"/><rect fill="#0c1013" x="0" y="855.5" width="976" height="24.65" shape-rendering="crispEdges"/><rect fill="#0c1013" x="0" y="879.9" width="976" height="24.65" shape-rendering="crispEdges"/><rect fill="#0c1013" x="0" y="904.3" width="976" height="24.65" shape-rendering="crispEdges"/><rect fill="#0c1013" x="0" y="928.7" width="12.2" height="24.65" shape-rendering="crispEdges"/><rect fill="#0c1013" x="12.2" y="928.7" width="12.2" height="24.65" shape-rendering="crispEdges"/><rect fill="#0c1013" x="24.4" y="928.7" width="12.2" height="24.65" shape-rendering="crispEdges"/><rect fill="#0c1013" x="36.6" y="928.7" width="61" height="24.65" shape-rendering="crispEdges"/><rect fill="#0c1013" x="97.6" y="928.7" width="36.6" height="24.65" shape-rendering="crispEdges"/><rect fill="#0c1013" x="134.2" y="928.7" width="12.2" height="24.65" shape-rendering="crispEdges"/><rect fill="#0c1013" x="146.4" y="928.7" width="12.2" height="24.65" shape-rendering="crispEdges"/><rect fill="#0c1013" x="158.6" y="928.7" width="109.8" height="24.65" shape-rendering="crispEdges"/><rect fill="#0c1013" x="268.4" y="928.7" width="36.6" height="24.65" shape-rendering="crispEdges"/><rect fill="#0c1013" x="305" y="928.7" width="12.2" height="24.65" shape-rendering="crispEdges"/><rect fill="#0c1013" x="317.2" y="928.7" width="12.2" height="24.65" shape-rendering="crispEdges"/><rect fill="#0c1013" x="329.4" y="928.7" width="36.6" height="24.65" shape-rendering="crispEdges"/><rect fill="#0c1013" x="366" y="928.7" width="36.6" height="24.65" shape-rendering="crispEdges"/><rect fill="#0c1013" x="402.6" y="928.7" width="12.2" height="24.65" shape-rendering="crispEdges"/><rect fill="#0c1013" x="414.8" y="928.7" width="12.2" height="24.65" shape-rendering="crispEdges"/><rect fill="#0c1013" x="427" y="928.7" width="48.8" height="24.65" shape-rendering="crispEdges"/><rect fill="#0c1013" x="475.8" y="928.7" width="36.6" height="24.65" shape-rendering="crispEdges"/><rect fill="#0c1013" x="512.4" y="928.7" width="12.2" height="24.65" shape-rendering="crispEdges"/><rect fill="#0c1013" x="524.6" y="928.7" width="12.2" height="24.65" shape-rendering="crispEdges"/><rect fill="#0c1013" x="536.8" y="928.7" width="73.2" height="24.65" shape-rendering="crispEdges"/><rect fill="#0c1013" x="610" y="928.7" width="366" height="24.65" shape-rendering="crispEdges"/><rect fill="#0c1013" x="0" y="953.1" width="12.2" height="24.65" shape-rendering="crispEdges"/><rect fill="#0c1013" x="12.2" y="953.1" width="12.2" height="24.65" shape-rendering="crispEdges"/><rect fill="#0c1013" x="24.4" y="953.1" width="12.2" height="24.65" shape-rendering="crispEdges"/><rect fill="#0c1013" x="36.6" y="953.1" width="122" height="24.65" shape-rendering="crispEdges"/><rect fill="#0c1013" x="158.6" y="953.1" width="36.6" height="24.65" shape-rendering="crispEdges"/><rect fill="#0c1013" x="195.2" y="953.1" width="12.2" height="24.65" shape-rendering="crispEdges"/><rect fill="#0c1013" x="207.4" y="953.1" width="12.2" height="24.65" shape-rendering="crispEdges"/><rect fill="#0c1013" x="219.6" y="953.1" width="85.4" height="24.65" shape-rendering="crispEdges"/><rect fill="#0c1013" x="305" y="953.1" width="36.6" height="24.65" shape-rendering="crispEdges"/><rect fill="#0c1013" x="341.6" y="953.1" width="12.2" height="24.65" shape-rendering="crispEdges"/><rect fill="#0c1013" x="353.8" y="953.1" width="12.2" height="24.65" shape-rendering="crispEdges"/><rect fill="#0c1013" x="366" y="953.1" width="97.6" height="24.65" shape-rendering="crispEdges"/><rect fill="#0c1013" x="463.6" y="953.1" width="36.6" height="24.65" shape-rendering="crispEdges"/><rect fill="#0c1013" x="500.2" y="953.1" width="12.2" height="24.65" shape-rendering="crispEdges"/><rect fill="#0c1013" x="512.4" y="953.1" width="12.2" height="24.65" shape-rendering="crispEdges"/><rect fill="#0c1013" x="524.6" y="953.1" width="48.8" height="24.65" shape-rendering="crispEdges"/><rect fill="#0c1013" x="573.4" y="953.1" width="402.6" height="24.65" shape-rendering="crispEdges"/>
    <g class="terminal-matrix">
    <text class="terminal-r1" x="0" y="20" textLength="24.4" clip-path="url(#terminal-line-0)">╭─</text><text class="terminal-r2" x="24.4" y="20" textLength="207.4" clip-path="url(#terminal-line-0)">&#160;[&#160;S&#160;T&#160;A&#160;T&#160;U&#160;S&#160;]&#160;</text><text class="terminal-r1" x="231.8" y="20" textLength="744.2" clip-path="url(#terminal-line-0)">────────────────────────────────────────────────────────────╮</text><text class="terminal-r3" x="976" y="20" textLength="12.2" clip-path="url(#terminal-line-0)">
</text><text class="terminal-r1" x="0" y="44.4" textLength="12.2" clip-path="url(#terminal-line-1)">│</text><text class="terminal-r4" x="36.6" y="44.4" textLength="402.6" clip-path="url(#terminal-line-1)">Select&#160;a&#160;device,&#160;then&#160;F&#160;to&#160;flash.</text><text class="terminal-r1" x="963.8" y="44.4" textLength="12.2" clip-path="url(#terminal-line-1)">│</text><text class="terminal-r3" x="976" y="44.4" textLength="12.2" clip-path="url(#terminal-line-1)">
</text><text class="terminal-r1" x="0" y="68.8" textLength="12.2" clip-path="url(#terminal-line-2)">│</text><text class="terminal-r4" x="36.6" y="68.8" textLength="109.8" clip-path="url(#terminal-line-2)">Klipper:&#160;</text><text class="terminal-r5" x="146.4" y="68.8" textLength="85.4" clip-path="url(#terminal-line-2)">Running</text><text class="terminal-r4" x="280.6" y="68.8" textLength="134.2" clip-path="url(#terminal-line-2)">Moonraker:&#160;</text><text class="terminal-r5" x="414.8" y="68.8" textLength="85.4" clip-path="url(#terminal-line-2)">Running</text><text class="terminal-r1" x="963.8" y="68.8" textLength="12.2" clip-path="url(#terminal-line-2)">│</text><text class="terminal-r3" x="976" y="68.8" textLength="12.2" clip-path="url(#terminal-line-2)">
</text><text class="terminal-r1" x="0" y="93.2" textLength="12.2" clip-path="url(#terminal-line-3)">│</text><text class="terminal-r4" x="36.6" y="93.2" textLength="73.2" clip-path="url(#terminal-line-3)">Host:&#160;</text><text class="terminal-r6" x="109.8" y="93.2" textLength="207.4" clip-path="url(#terminal-line-3)">Klipper&#160;v0.12.0-5</text><text class="terminal-r1" x="963.8" y="93.2" textLength="12.2" clip-path="url(#terminal-line-3)">│</text><text class="terminal-r3" x="976" y="93.2" textLength="12.2" clip-path="url(#terminal-line-3)">
</text><text class="terminal-r1" x="0" y="117.6" textLength="976" clip-path="url(#terminal-line-4)">╰──────────────────────────────────────────────────────────────────────────────╯</text><text class="terminal-r3" x="976" y="117.6" textLength="12.2" clip-path="url(#terminal-line-4)">
</text><text class="terminal-r3" x="976" y="142" textLength="12.2" clip-path="url(#terminal-line-5)">
</text><text class="terminal-r1" x="0" y="166.4" textLength="24.4" clip-path="url(#terminal-line-6)">╭─</text><text class="terminal-r2" x="24.4" y="166.4" textLength="231.8" clip-path="url(#terminal-line-6)">&#160;[&#160;D&#160;E&#160;V&#160;I&#160;C&#160;E&#160;S&#160;]&#160;</text><text class="terminal-r1" x="256.2" y="166.4" textLength="719.8" clip-path="url(#terminal-line-6)">──────────────────────────────────────────────────────────╮</text><text class="terminal-r3" x="976" y="166.4" textLength="12.2" clip-path="url(#terminal-line-6)">
</text><text class="terminal-r1" x="0" y="190.8" textLength="12.2" clip-path="url(#terminal-line-7)">│</text><text class="terminal-r7" x="36.6" y="190.8" textLength="36.6" clip-path="url(#terminal-line-7)">&#160;#&#160;</text><text class="terminal-r7" x="73.2" y="190.8" textLength="378.2" clip-path="url(#terminal-line-7)">&#160;Device&#160;&#160;&#160;&#160;&#160;&#160;&#160;&#160;&#160;&#160;&#160;&#160;&#160;&#160;&#160;&#160;&#160;&#160;&#160;&#160;&#160;&#160;&#160;&#160;</text><text class="terminal-r7" x="451.4" y="190.8" textLength="134.2" clip-path="url(#terminal-line-7)">&#160;MCU&#160;&#160;&#160;&#160;&#160;&#160;&#160;</text><text class="terminal-r7" x="585.6" y="190.8" textLength="146.4" clip-path="url(#terminal-line-7)">&#160;Method&#160;&#160;&#160;&#160;&#160;</text><text class="terminal-r7" x="732" y="190.8" textLength="134.2" clip-path="url(#terminal-line-7)">&#160;Conn&#160;&#160;&#160;&#160;&#160;&#160;</text><text class="terminal-r7" x="866.2" y="190.8" textLength="73.2" clip-path="url(#terminal-line-7)">&#160;Versi</text><text class="terminal-r1" x="963.8" y="190.8" textLength="12.2" clip-path="url(#terminal-line-7)">│</text><text class="terminal-r3" x="976" y="190.8" textLength="12.2" clip-path="url(#terminal-line-7)">
</text><text class="terminal-r1" x="0" y="215.2" textLength="12.2" clip-path="url(#terminal-line-8)">│</text><text class="terminal-r8" x="36.6" y="215.2" textLength="36.6" clip-path="url(#terminal-line-8)">&#160;1&#160;</text><text class="terminal-r8" x="73.2" y="215.2" textLength="378.2" clip-path="url(#terminal-line-8)">&#160;Octopus&#160;Pro&#160;&#160;&#160;&#160;&#160;&#160;&#160;&#160;&#160;&#160;&#160;&#160;&#160;&#160;&#160;&#160;&#160;&#160;&#160;</text><text class="terminal-r8" x="451.4" y="215.2" textLength="134.2" clip-path="url(#terminal-line-8)">&#160;stm32h723&#160;</text><text class="terminal-r8" x="585.6" y="215.2" textLength="146.4" clip-path="url(#terminal-line-8)">&#160;katapult&#160;&#160;&#160;</text><text class="terminal-r8" x="732" y="215.2" textLength="134.2" clip-path="url(#terminal-line-8)">&#160;connected&#160;</text><text class="terminal-r8" x="866.2" y="215.2" textLength="73.2" clip-path="url(#terminal-line-8)">&#160;v0.12</text><text class="terminal-r1" x="963.8" y="215.2" textLength="12.2" clip-path="url(#terminal-line-8)">│</text><text class="terminal-r3" x="976" y="215.2" textLength="12.2" clip-path="url(#terminal-line-8)">
</text><text class="terminal-r1" x="0" y="239.6" textLength="12.2" clip-path="url(#terminal-line-9)">│</text><text class="terminal-r7" x="48.8" y="239.6" textLength="12.2" clip-path="url(#terminal-line-9)">2</text><text class="terminal-r9" x="85.4" y="239.6" textLength="207.4" clip-path="url(#terminal-line-9)">Spider&#160;(excluded)</text><text class="terminal-r10" x="463.6" y="239.6" textLength="109.8" clip-path="url(#terminal-line-9)">stm32f446</text><text class="terminal-r9" x="597.8" y="239.6" textLength="122" clip-path="url(#terminal-line-9)">make_flash</text><text class="terminal-r11" x="744.2" y="239.6" textLength="97.6" clip-path="url(#terminal-line-9)">excluded</text><text class="terminal-r9" x="878.4" y="239.6" textLength="12.2" clip-path="url(#terminal-line-9)">-</text><text class="terminal-r1" x="963.8" y="239.6" textLength="12.2" clip-path="url(#terminal-line-9)">│</text><text class="terminal-r3" x="976" y="239.6" textLength="12.2" clip-path="url(#terminal-line-9)">
</text><text class="terminal-r1" x="0" y="264" textLength="12.2" clip-path="url(#terminal-line-10)">│</text><text class="terminal-r7" x="48.8" y="264" textLength="12.2" clip-path="url(#terminal-line-10)">3</text><text class="terminal-r9" x="85.4" y="264" textLength="353.8" clip-path="url(#terminal-line-10)">usb-Klipper_rp2040_NEW01-if00</text><text class="terminal-r10" x="463.6" y="264" textLength="73.2" clip-path="url(#terminal-line-10)">rp2040</text><text class="terminal-r9" x="597.8" y="264" textLength="12.2" clip-path="url(#terminal-line-10)">-</text><text class="terminal-r11" x="744.2" y="264" textLength="36.6" clip-path="url(#terminal-line-10)">new</text><text class="terminal-r9" x="878.4" y="264" textLength="12.2" clip-path="url(#terminal-line-10)">-</text><text class="terminal-r1" x="963.8" y="264" textLength="12.2" clip-path="url(#terminal-line-10)">│</text><text class="terminal-r3" x="976" y="264" textLength="12.2" clip-path="url(#terminal-line-10)">
</text><text class="terminal-r1" x="0" y="288.4" textLength="12.2" clip-path="url(#terminal-line-11)">│</text><text class="terminal-r12" x="85.4" y="288.4" textLength="256.2" clip-path="url(#terminal-line-11)">usb-ch340_serial-if00</text><text class="terminal-r12" x="463.6" y="288.4" textLength="12.2" clip-path="url(#terminal-line-11)">-</text><text class="terminal-r12" x="597.8" y="288.4" textLength="12.2" clip-path="url(#terminal-line-11)">-</text><text class="terminal-r12" x="744.2" y="288.4" textLength="85.4" clip-path="url(#terminal-line-11)">blocked</text><text class="terminal-r12" x="878.4" y="288.4" textLength="61" clip-path="url(#terminal-line-11)">Unsup</text><text class="terminal-r1" x="963.8" y="288.4" textLength="12.2" clip-path="url(#terminal-line-11)">│</text><text class="terminal-r3" x="976" y="288.4" textLength="12.2" clip-path="url(#terminal-line-11)">
</text><text class="terminal-r1" x="0" y="312.8" textLength="12.2" clip-path="url(#terminal-line-12)">│</text><text class="terminal-r14" x="793" y="312.8" textLength="12.2" clip-path="url(#terminal-line-12)">▎</text><text class="terminal-r1" x="963.8" y="312.8" textLength="12.2" clip-path="url(#terminal-line-12)">│</text><text class="terminal-r3" x="976" y="312.8" textLength="12.2" clip-path="url(#terminal-line-12)">
</text><text class="terminal-r1" x="0" y="337.2" textLength="976" clip-path="url(#terminal-line-13)">╰──────────────────────────────────────────────────────────────────────────────╯</text><text class="terminal-r3" x="976" y="337.2" textLength="12.2" clip-path="url(#terminal-line-13)">
</text><text class="terminal-r3" x="976" y="361.6" textLength="12.2" clip-path="url(#terminal-line-14)">
</text><text class="terminal-r3" x="976" y="386" textLength="12.2" clip-path="url(#terminal-line-15)">
</text><text class="terminal-r3" x="976" y="410.4" textLength="12.2" clip-path="url(#terminal-line-16)">
</text><text class="terminal-r3" x="976" y="434.8" textLength="12.2" clip-path="url(#terminal-line-17)">
</text><text class="terminal-r3" x="976" y="459.2" textLength="12.2" clip-path="url(#terminal-line-18)">
</text><text class="terminal-r3" x="976" y="483.6" textLength="12.2" clip-path="url(#terminal-line-19)">
</text><text class="terminal-r3" x="976" y="508" textLength="12.2" clip-path="url(#terminal-line-20)">
</text><text class="terminal-r3" x="976" y="532.4" textLength="12.2" clip-path="url(#terminal-line-21)">
</text><text class="terminal-r3" x="976" y="556.8" textLength="12.2" clip-path="url(#terminal-line-22)">
</text><text class="terminal-r3" x="976" y="581.2" textLength="12.2" clip-path="url(#terminal-line-23)">
</text><text class="terminal-r3" x="976" y="605.6" textLength="12.2" clip-path="url(#terminal-line-24)">
</text><text class="terminal-r3" x="976" y="630" textLength="12.2" clip-path="url(#terminal-line-25)">
</text><text class="terminal-r3" x="976" y="654.4" textLength="12.2" clip-path="url(#terminal-line-26)">
</text><text class="terminal-r3" x="976" y="678.8" textLength="12.2" clip-path="url(#terminal-line-27)">
</text><text class="terminal-r3" x="976" y="703.2" textLength="12.2" clip-path="url(#terminal-line-28)">
</text><text class="terminal-r3" x="976" y="727.6" textLength="12.2" clip-path="url(#terminal-line-29)">
</text><text class="terminal-r3" x="976" y="752" textLength="12.2" clip-path="url(#terminal-line-30)">
</text><text class="terminal-r3" x="976" y="776.4" textLength="12.2" clip-path="url(#terminal-line-31)">
</text><text class="terminal-r3" x="976" y="800.8" textLength="12.2" clip-path="url(#terminal-line-32)">
</text><text class="terminal-r3" x="976" y="825.2" textLength="12.2" clip-path="url(#terminal-line-33)">
</text><text class="terminal-r3" x="976" y="849.6" textLength="12.2" clip-path="url(#terminal-line-34)">
</text><text class="terminal-r3" x="976" y="874" textLength="12.2" clip-path="url(#terminal-line-35)">
</text><text class="terminal-r3" x="976" y="898.4" textLength="12.2" clip-path="url(#terminal-line-36)">
</text><text class="terminal-r3" x="976" y="922.8" textLength="12.2" clip-path="url(#terminal-line-37)">
</text><text class="terminal-r2" x="12.2" y="947.2" textLength="12.2" clip-path="url(#terminal-line-38)">F</text><text class="terminal-r9" x="36.6" y="947.2" textLength="61" clip-path="url(#terminal-line-38)">Flash</text><text class="terminal-r2" x="134.2" y="947.2" textLength="12.2" clip-path="url(#terminal-line-38)">B</text><text class="terminal-r9" x="158.6" y="947.2" textLength="109.8" clip-path="url(#terminal-line-38)">Flash&#160;All</text><text class="terminal-r2" x="305" y="947.2" textLength="12.2" clip-path="url(#terminal-line-38)">A</text><text class="terminal-r9" x="329.4" y="947.2" textLength="36.6" clip-path="url(#terminal-line-38)">Add</text><text class="terminal-r2" x="402.6" y="947.2" textLength="12.2" clip-path="url(#terminal-line-38)">E</text><text class="terminal-r9" x="427" y="947.2" textLength="48.8" clip-path="url(#terminal-line-38)">Edit</text><text class="terminal-r2" x="512.4" y="947.2" textLength="12.2" clip-path="url(#terminal-line-38)">R</text><text class="terminal-r9" x="536.8" y="947.2" textLength="73.2" clip-path="url(#terminal-line-38)">Remove</text><text class="terminal-r3" x="976" y="947.2" textLength="12.2" clip-path="url(#terminal-line-38)">
</text><text class="terminal-r2" x="12.2" y="971.6" textLength="12.2" clip-path="url(#terminal-line-39)">M</text><text class="terminal-r9" x="36.6" y="971.6" textLength="122" clip-path="url(#terminal-line-39)">Menuconfig</text><text class="terminal-r2" x="195.2" y="971.6" textLength="12.2" clip-path="url(#terminal-line-39)">D</text><text class="terminal-r9" x="219.6" y="971.6" textLength="85.4" clip-path="url(#terminal-line-39)">Refresh</text><text class="terminal-r2" x="341.6" y="971.6" textLength="12.2" clip-path="url(#terminal-line-39)">C</text><text class="terminal-r9" x="366" y="971.6" textLength="97.6" clip-path="url(#terminal-line-39)">Settings</text><text class="terminal-r2" x="500.2" y="971.6" textLength="12.2" clip-path="url(#terminal-line-39)">Q</text><text class="terminal-r9" x="524.6" y="971.6" textLength="48.8" clip-path="url(#terminal-line-39)">Quit</text>
    </g>
    </g>
</svg>
