<svg class="rich-terminal" viewBox="0 0 994 830.8" xmlns="http://www.w3.org/2000/svg">
    <!-- Generated with Rich https://www.textualize.io -->
    <style>

    @font-face {
        font-family: "Fira Code";
        src: local("FiraCode-Regular"),
                url("https://cdnjs.cloudflare.com/ajax/libs/firacode/6.2.0/woff2/FiraCode-Regular.woff2") format("woff2"),
                url("https://cdnjs.cloudflare.com/ajax/libs/firacode/6.2.0/woff/FiraCode-Regular.woff") format("woff");
        font-style: normal;
        font-weight: 400;
    }
    @font-face {
        font-family: "Fira Code";
        src: local("FiraCode-Bold"),
                url("https://cdnjs.cloudflare.com/ajax/libs/firacode/6.2.0/woff2/FiraCode-Bold.woff2") format("woff2"),
                url("https://cdnjs.cloudflare.com/ajax/libs/firacode/6.2.0/woff/FiraCode-Bold.woff") format("woff");
        font-style: bold;
        font-weight: 700;
    }

    .terminal-matrix {
        font-family: Fira Code, monospace;
        font-size: 20px;
        line-height: 24.4px;
        font-variant-east-asian: full-width;
    }

    .terminal-title {
        font-size: 18px;
        font-weight: bold;
        font-family: arial;
    }

    .terminal-r1 { fill: #64a0b4 }
.terminal-r2 { fill: #82c8dc;font-weight: bold }
.terminal-r3 { fill: #c5c8c6 }
.terminal-r4 { fill: #c8d2d7 }
.terminal-r5 { fill: #8cb4a0 }
.terminal-r6 { fill: #0c1013 }
.terminal-r7 { fill: #647882 }
.terminal-r8 { fill: #dce1e6 }
    </style>

    <defs>
    <clipPath id="terminal-clip-terminal">
      <rect x="0" y="0" width="975.0" height="779.8" />
    </clipPath>
    <clipPath id="terminal-line-0">
    <rect x="0" y="1.5" width="976" height="24.65"/>
            </clipPath>
<clipPath id="terminal-line-1">
    <rect x="0" y="25.9" width="976" height="24.65"/>
            </clipPath>
<clipPath id="terminal-line-2">
    <rect x="0" y="50.3" width="976" height="24.65"/>
            </clipPath>
<clipPath id="terminal-line-3">
    <rect x="0" y="74.7" width="976" height="24.65"/>
            </clipPath>
<clipPath id="terminal-line-4">
    <rect x="0" y="99.1" width="976" height="24.65"/>
            </clipPath>
<clipPath id="terminal-line-5">
    <rect x="0" y="123.5" width="976" height="24.65"/>
            </clipPath>
<clipPath id="terminal-line-6">
    <rect x="0" y="147.9" width="976" height="24.65"/>
            </clipPath>
<clipPath id="terminal-line-7">
    <rect x="0" y="172.3" width="976" height="24.65"/>
            </clipPath>
<clipPath id="terminal-line-8">
    <rect x="0" y="196.7" width="976" height="24.65"/>
            </clipPath>
<clipPath id="terminal-line-9">
    <rect x="0" y="221.1" width="976" height="24.65"/>
            </clipPath>
<clipPath id="terminal-line-10">
    <rect x="0" y="245.5" width="976" height="24.65"/>
            </clipPath>
<clipPath id="terminal-line-11">
    <rect x="0" y="269.9" width="976" height="24.65"/>
            </clipPath>
<clipPath id="terminal-line-12">
    <rect x="0" y="294.3" width="976" height="24.65"/>
            </clipPath>
<clipPath id="terminal-line-13">
    <rect x="0" y="318.7" width="976" height="24.65"/>
            </clipPath>
<clipPath id="terminal-line-14">
    <rect x="0" y="343.1" width="976" height="24.65"/>
            </clipPath>
<clipPath id="terminal-line-15">
    <rect x="0" y="367.5" width="976" height="24.65"/>
            </clipPath>
<clipPath id="terminal-line-16">
    <rect x="0" y="391.9" width="976" height="24.65"/>
            </clipPath>
<clipPath id="terminal-line-17">
    <rect x="0" y="416.3" width="976" height="24.65"/>
            </clipPath>
<clipPath id="terminal-line-18">
    <rect x="0" y="440.7" width="976" height="24.65"/>
            </clipPath>
<clipPath id="terminal-line-19">
    <rect x="0" y="465.1" width="976" height="24.65"/>
            </clipPath>
<clipPath id="terminal-line-20">
    <rect x="0" y="489.5" width="976" height="24.65"/>
            </clipPath>
<clipPath id="terminal-line-21">
    <rect x="0" y="513.9" width="976" height="24.65"/>
            </clipPath>
<clipPath id="terminal-line-22">
    <rect x="0" y="538.3" width="976" height="24.65"/>
            </clipPath>
<clipPath id="terminal-line-23">
    <rect x="0" y="562.7" width="976" height="24.65"/>
            </clipPath>
<clipPath id="terminal-line-24">
    <rect x="0" y="587.1" width="976" height="24.65"/>
            </clipPath>
<clipPath id="terminal-line-25">
    <rect x="0" y="611.5" width="976" height="24.65"/>
            </clipPath>
<clipPath id="terminal-line-26">
    <rect x="0" y="635.9" width="976" height="24.65"/>
            </clipPath>
<clipPath id="terminal-line-27">
    <rect x="0" y="660.3" width="976" height="24.65"/>
            </clipPath>
<clipPath id="terminal-line-28">
    <rect x="0" y="684.7" width="976" height="24.65"/>
            </clipPath>
<clipPath id="terminal-line-29">
    <rect x="0" y="709.1" width="976" height="24.65"/>
            </clipPath>
<clipPath id="terminal-line-30">
    <rect x="0" y="733.5" width="976" height="24.65"/>
            </clipPath>
    </defs>

    <rect fill="#292929" stroke="rgba(255,255,255,0.35)" stroke-width="1" x="1" y="1" width="992" height="828.8" rx="8"/><text class="terminal-title" fill="#c5c8c6" text-anchor="middle" x="496" y="27">SettingsHost</text>
            <g transform="translate(26,22)">
            <circle cx="0" cy="0" r="7" fill="#ff5f57"/>
            <circle cx="22" cy="0" r="7" fill="#febc2e"/>
            <circle cx="44" cy="0" r="7" fill="#28c840"/>
            </g>
        
    <g transform="translate(9, 41)" clip-path="url(#terminal-clip-terminal)">
    <rect fill="#0c1013" x="0" y="1.5" width="24.4" height="24.65" shape-rendering="crispEdges"/><rect fill="#0c1013" x="24.4" y="1.5" width="256.2" height="24.65" shape-rendering="crispEdges"/><rect fill="#0c1013" x="280.6" y="1.5" width="695.4" height="24.65" shape-rendering="crispEdges"/><rect fill="#0c1013" x="0" y="25.9" width="12.2" height="24.65" shape-rendering="crispEdges"/><rect fill="#0c1013" x="12.2" y="25.9" width="24.4" height="24.65" shape-rendering="crispEdges"/><rect fill="#0c1013" x="36.6" y="25.9" width="524.6" height="24.65" shape-rendering="crispEdges"/><rect fill="#0c1013" x="561.2" y="25.9" width="402.6" height="24.65" shape-rendering="crispEdges"/><rect fill="#0c1013" x="963.8" y="25.9" width="12.2" height="24.65" shape-rendering="crispEdges"/><rect fill="#0c1013" x="0" y="50.3" width="12.2" height="24.65" shape-rendering="crispEdges"/><rect fill="#0c1013" x="12.2" y="50.3" width="24.4" height="24.65" shape-rendering="crispEdges"/><rect fill="#15191c" x="36.6" y="50.3" width="36.6" height="24.65" shape-rendering="crispEdges"/><rect fill="#15191c" x="73.2" y="50.3" width="488" height="24.65" shape-rendering="crispEdges"/><rect fill="#15191c" x="561.2" y="50.3" width="146.4" height="24.65" shape-rendering="crispEdges"/><rect fill="#15191c" x="707.6" y="50.3" width="231.8" height="24.65" shape-rendering="crispEdges"/><rect fill="#0c1013" x="939.4" y="50.3" width="24.4" height="24.65" shape-rendering="crispEdges"/><rect fill="#0c1013" x="963.8" y="50.3" width="12.2" height="24.65" shape-rendering="crispEdges"/><rect fill="#0c1013" x="0" y="74.7" width="12.2" height="24.65" shape-rendering="crispEdges"/><rect fill="#0c1013" x="12.2" y="74.7" width="24.4" height="24.65" shape-rendering="crispEdges"/><rect fill="#82c8dc" x="36.6" y="74.7" width="36.6" height="24.65" shape-rendering="crispEdges"/><rect fill="#82c8dc" x="73.2" y="74.7" width="488" height="24.65" shape-rendering="crispEdges"/><rect fill="#82c8dc" x="561.2" y="74.7" width="146.4" height="24.65" shape-rendering="crispEdges"/><rect fill="#82c8dc" x="707.6" y="74.7" width="231.8" height="24.65" shape-rendering="crispEdges"/><rect fill="#0c1013" x="939.4" y="74.7" width="24.4" height="24.65" shape-rendering="crispEdges"/><rect fill="#0c1013" x="963.8" y="74.7" width="12.2" height="24.65" shape-rendering="crispEdges"/><rect fill="#0c1013" x="0" y="99.1" width="12.2" height="24.65" shape-rendering="crispEdges"/><rect fill="#0c1013" x="12.2" y="99.1" width="24.4" height="24.65" shape-rendering="crispEdges"/><rect fill="#15191c" x="36.6" y="99.1" width="12.2" height="24.65" shape-rendering="crispEdges"/><rect fill="#15191c" x="48.8" y="99.1" width="12.2" height="24.65" shape-rendering="crispEdges"/><rect fill="#15191c" x="61" y="99.1" width="12.2" height="24.65" shape-rendering="crispEdges"/><rect fill="#15191c" x="73.2" y="99.1" width="488" height="24.65" shape-rendering="crispEdges"/><rect fill="#15191c" x="561.2" y="99.1" width="12.2" height="24.65" shape-rendering="crispEdges"/><rect fill="#15191c" x="573.4" y="99.1" width="36.6" height="24.65" shape-rendering="crispEdges"/><rect fill="#15191c" x="610" y="99.1" width="97.6" height="24.65" shape-rendering="crispEdges"/><rect fill="#15191c" x="707.6" y="99.1" width="231.8" height="24.65" shape-rendering="crispEdges"/><rect fill="#0c1013" x="939.4" y="99.1" width="24.4" height="24.65" shape-rendering="crispEdges"/><rect fill="#0c1013" x="963.8" y="99.1" width="12.2" height="24.65" shape-rendering="crispEdges"/><rect fill="#0c1013" x="0" y="123.5" width="12.2" height="24.65" shape-rendering="crispEdges"/><rect fill="#0c1013" x="12.2" y="123.5" width="24.4" height="24.65" shape-rendering="crispEdges"/><rect fill="#15191c" x="36.6" y="123.5" width="12.2" height="24.65" shape-rendering="crispEdges"/><rect fill="#15191c" x="48.8" y="123.5" width="12.2" height="24.65" shape-rendering="crispEdges"/><rect fill="#15191c" x="61" y="123.5" width="12.2" height="24.65" shape-rendering="crispEdges"/><rect fill="#15191c" x="73.2" y="123.5" width="488" height="24.65" shape-rendering="crispEdges"/><rect fill="#15191c" x="561.2" y="123.5" width="12.2" height="24.65" shape-rendering="crispEdges"/><rect fill="#15191c" x="573.4" y="123.5" width="36.6" height="24.65" shape-rendering="crispEdges"/><rect fill="#15191c" x="610" y="123.5" width="97.6" height="24.65" shape-rendering="crispEdges"/><rect fill="#15191c" x="707.6" y="123.5" width="231.8" height="24.65" shape-rendering="crispEdges"/><rect fill="#0c1013" x="939.4" y="123.5" width="24.4" height="24.65" shape-rendering="crispEdges"/><rect fill="#0c1013" x="963.8" y="123.5" width="12.2" height="24.65" shape-rendering="crispEdges"/><rect fill="#0c1013" x="0" y="147.9" width="12.2" height="24.65" shape-rendering="crispEdges"/><rect fill="#0c1013" x="12.2" y="147.9" width="24.4" height="24.65" shape-rendering="crispEdges"/><rect fill="#15191c" x="36.6" y="147.9" width="12.2" height="24.65" shape-rendering="crispEdges"/><rect fill="#15191c" x="48.8" y="147.9" width="12.2" height="24.65" shape-rendering="crispEdges"/><rect fill="#15191c" x="61" y="147.9" width="12.2" height="24.65" shape-rendering="crispEdges"/><rect fill="#15191c" x="73.2" y="147.9" width="488" height="24.65" shape-rendering="crispEdges"/><rect fill="#15191c" x="561.2" y="147.9" width="12.2" height="24.65" shape-rendering="crispEdges"/><rect fill="#15191c" x="573.4" y="147.9" width="36.6" height="24.65" shape-rendering="crispEdges"/><rect fill="#15191c" x="610" y="147.9" width="97.6" height="24.65" shape-rendering="crispEdges"/><rect fill="#15191c" x="707.6" y="147.9" width="231.8" height="24.65" shape-rendering="crispEdges"/><rect fill="#0c1013" x="939.4" y="147.9" width="24.4" height="24.65" shape-rendering="crispEdges"/><rect fill="#0c1013" x="963.8" y="147.9" width="12.2" height="24.65" shape-rendering="crispEdges"/><rect fill="#0c1013" x="0" y="172.3" width="12.2" height="24.65" shape-rendering="crispEdges"/><rect fill="#0c1013" x="12.2" y="172.3" width="24.4" height="24.65" shape-rendering="crispEdges"/><rect fill="#15191c" x="36.6" y="172.3" width="12.2" height="24.65" shape-rendering="crispEdges"/><rect fill="#15191c" x="48.8" y="172.3" width="12.2" height="24.65" shape-rendering="crispEdges"/><rect fill="#15191c" x="61" y="172.3" width="12.2" height="24.65" shape-rendering="crispEdges"/><rect fill="#15191c" x="73.2" y="172.3" width="488" height="24.65" shape-rendering="crispEdges"/><rect fill="#15191c" x="561.2" y="172.3" width="12.2" height="24.65" shape-rendering="crispEdges"/><rect fill="#15191c" x="573.4" y="172.3" width="36.6" height="24.65" shape-rendering="crispEdges"/><rect fill="#15191c" x="610" y="172.3" width="97.6" height="24.65" shape-rendering="crispEdges"/><rect fill="#15191c" x="707.6" y="172.3" width="231.8" height="24.65" shape-rendering="crispEdges"/><rect fill="#0c1013" x="939.4" y="172.3" width="24.4" height="24.65" shape-rendering="crispEdges"/><rect fill="#0c1013" x="963.8" y="172.3" width="12.2" height="24.65" shape-rendering="crispEdges"/><rect fill="#0c1013" x="0" y="196.7" width="12.2" height="24.65" shape-rendering="crispEdges"/><rect fill="#0c1013" x="12.2" y="196.7" width="24.4" height="24.65" shape-rendering="crispEdges"/><rect fill="#15191c" x="36.6" y="196.7" width="12.2" height="24.65" shape-rendering="crispEdges"/><rect fill="#15191c" x="48.8" y="196.7" width="12.2" height="24.65" shape-rendering="crispEdges"/><rect fill="#15191c" x="61" y="196.7" width="12.2" height="24.65" shape-rendering="crispEdges"/><rect fill="#15191c" x="73.2" y="196.7" width="488" height="24.65" shape-rendering="crispEdges"/><rect fill="#15191c" x="561.2" y="196.7" width="12.2" height="24.65" shape-rendering="crispEdges"/><rect fill="#15191c" x="573.4" y="196.7" width="36.6" height="24.65" shape-rendering="crispEdges"/><rect fill="#15191c" x="610" y="196.7" width="97.6" height="24.65" shape-rendering="crispEdges"/><rect fill="#15191c" x="707.6" y="196.7" width="231.8" height="24.65" shape-rendering="crispEdges"/><rect fill="#0c1013" x="939.4" y="196.7" width="24.4" height="24.65" shape-rendering="crispEdges"/><rect fill="#0c1013" x="963.8" y="196.7" width="12.2" height="24.65" shape-rendering="crispEdges"/><rect fill="#0c1013" x="0" y="221.1" width="12.2" height="24.65" shape-rendering="crispEdges"/><rect fill="#0c1013" x="12.2" y="221.1" width="24.4" height="24.65" shape-rendering="crispEdges"/><rect fill="#15191c" x="36.6" y="221.1" width="12.2" height="24.65" shape-rendering="crispEdges"/><rect fill="#15191c" x="48.8" y="221.1" width="12.2" height="24.65" shape-rendering="crispEdges"/><rect fill="#15191c" x="61" y="221.1" width="12.2" height="24.65" shape-rendering="crispEdges"/><rect fill="#15191c" x="73.2" y="221.1" width="488" height="24.65" shape-rendering="crispEdges"/><rect fill="#15191c" x="561.2" y="221.1" width="12.2" height="24.65" shape-rendering="crispEdges"/><rect fill="#15191c" x="573.4" y="221.1" width="109.8" height="24.65" shape-rendering="crispEdges"/><rect fill="#15191c" x="683.2" y="221.1" width="24.4" height="24.65" shape-rendering="crispEdges"/><rect fill="#15191c" x="707.6" y="221.1" width="231.8" height="24.65" shape-rendering="crispEdges"/><rect fill="#0c1013" x="939.4" y="221.1" width="24.4" height="24.65" shape-rendering="crispEdges"/><rect fill="#0c1013" x="963.8" y="221.1" width="12.2" height="24.65" shape-rendering="crispEdges"/><rect fill="#0c1013" x="0" y="245.5" width="12.2" height="24.65" shape-rendering="crispEdges"/><rect fill="#0c1013" x="12.2" y="245.5" width="24.4" height="24.65" shape-rendering="crispEdges"/><rect fill="#15191c" x="36.6" y="245.5" width="12.2" height="24.65" shape-rendering="crispEdges"/><rect fill="#15191c" x="48.8" y="245.5" width="12.2" height="24.65" shape-rendering="crispEdges"/><rect fill="#15191c" x="61" y="245.5" width="12.2" height="24.65" shape-rendering="crispEdges"/><rect fill="#15191c" x="73.2" y="245.5" width="488" height="24.65" shape-rendering="crispEdges"/><rect fill="#15191c" x="561.2" y="245.5" width="12.2" height="24.65" shape-rendering="crispEdges"/><rect fill="#15191c" x="573.4" y="245.5" width="122" height="24.65" shape-rendering="crispEdges"/><rect fill="#15191c" x="695.4" y="245.5" width="12.2" height="24.65" shape-rendering="crispEdges"/><rect fill="#15191c" x="707.6" y="245.5" width="231.8" height="24.65" shape-rendering="crispEdges"/><rect fill="#0c1013" x="939.4" y="245.5" width="24.4" height="24.65" shape-rendering="crispEdges"/><rect fill="#0c1013" x="963.8" y="245.5" width="12.2" height="24.65" shape-rendering="crispEdges"/><rect fill="#0c1013" x="0" y="269.9" width="976" height="24.65" shape-rendering="crispEdges"/><rect fill="#0c1013" x="0" y="294.3" width="976" height="24.65" shape-rendering="crispEdges"/><rect fill="#0c1013" x="0" y="318.7" width="976" height="24.65" shape-rendering="crispEdges"/><rect fill="#0c1013" x="0" y="343.1" width="976" height="24.65" shape-rendering="crispEdges"/><rect fill="#0c1013" x="0" y="367.5" width="976" height="24.65" shape-rendering="crispEdges"/><rect fill="#0c1013" x="0" y="391.9" width="976" height="24.65" shape-rendering="crispEdges"/><rect fill="#0c1013" x="0" y="416.3" width="976" height="24.65" shape-rendering="crispEdges"/><rect fill="#0c1013" x="0" y="440.7" width="976" height="24.65" shape-rendering="crispEdges"/><rect fill="#0c1013" x="0" y="465.1" width="976" height="24.65" shape-rendering="crispEdges"/><rect fill="#0c1013" x="0" y="489.5" width="976" height="24.65" shape-rendering="crispEdges"/><rect fill="#0c1013" x="0" y="513.9" width="976" height="24.65" shape-rendering="crispEdges"/><rect fill="#0c1013" x="0" y="538.3" width="976" height="24.65" shape-rendering="crispEdges"/><rect fill="#0c1013" x="0" y="562.7" width="976" height="24.65" shape-rendering="crispEdges"/><rect fill="#0c1013" x="0" y="587.1" width="976" height="24.65" shape-rendering="crispEdges"/><rect fill="#0c1013" x="0" y="611.5" width="976" height="24.65" shape-rendering="crispEdges"/><rect fill="#0c1013" x="0" y="635.9" width="976" height="24.65" shape-rendering="crispEdges"/><rect fill="#0c1013" x="0" y="660.3" width="976" height="24.65" shape-rendering="crispEdges"/><rect fill="#0c1013" x="0" y="684.7" width="976" height="24.65" shape-rendering="crispEdges"/><rect fill="#0c1013" x="0" y="709.1" width="976" height="24.65" shape-rendering="crispEdges"/><rect fill="#0c1013" x="0" y="733.5" width="976" height="24.65" shape-rendering="crispEdges"/><rect fill="#0c1013" x="0" y="757.9" width="12.2" height="24.65" shape-rendering="crispEdges"/><rect fill="#0c1013" x="12.2" y="757.9" width="61" height="24.65" shape-rendering="crispEdges"/><rect fill="#0c1013" x="73.2" y="757.9" width="12.2" height="24.65" shape-rendering="crispEdges"/><rect fill="#0c1013" x="85.4" y="757.9" width="48.8" height="24.65" shape-rendering="crispEdges"/><rect fill="#0c1013" x="134.2" y="757.9" width="36.6" height="24.65" shape-rendering="crispEdges"/><rect fill="#0c1013" x="170.8" y="757.9" width="61" height="24.65" shape-rendering="crispEdges"/><rect fill="#0c1013" x="231.8" y="757.9" width="12.2" height="24.65" shape-rendering="crispEdges"/><rect fill="#0c1013" x="244" y="757.9" width="48.8" height="24.65" shape-rendering="crispEdges"/><rect fill="#0c1013" x="292.8" y="757.9" width="36.6" height="24.65" shape-rendering="crispEdges"/><rect fill="#0c1013" x="329.4" y="757.9" width="12.2" height="24.65" shape-rendering="crispEdges"/><rect fill="#0c1013" x="341.6" y="757.9" width="12.2" height="24.65" shape-rendering="crispEdges"/><rect fill="#0c1013" x="353.8" y="757.9" width="48.8" height="24.65" shape-rendering="crispEdges"/><rect fill="#0c1013" x="402.6" y="757.9" width="36.6" height="24.65" shape-rendering="crispEdges"/><rect fill="#0c1013" x="439.2" y="757.9" width="36.6" height="24.65" shape-rendering="crispEdges"/><rect fill="#0c1013" x="475.8" y="757.9" width="12.2" height="24.65" shape-rendering="crispEdges"/><rect fill="#0c1013" x="488" y="757.9" width="48.8" height="24.65" shape-rendering="crispEdges"/><rect fill="#0c1013" x="536.8" y="757.9" width="439.2" height="24.65" shape-rendering="crispEdges"/>
    <g class="terminal-matrix">
    <text class="terminal-r1" x="0" y="20" textLength="24.4" clip-path="url(#terminal-line-0)">╭─</text><text class="terminal-r2" x="24.4" y="20" textLength="256.2" clip-path="url(#terminal-line-0)">&#160;[&#160;S&#160;E&#160;T&#160;T&#160;I&#160;N&#160;G&#160;S&#160;]&#160;</text><text class="terminal-r1" x="280.6" y="20" textLength="695.4" clip-path="url(#terminal-line-0)">────────────────────────────────────────────────────────╮</text><text class="terminal-r3" x="976" y="20" textLength="12.2" clip-path="url(#terminal-line-0)">
</text><text class="terminal-r1" x="0" y="44.4" textLength="12.2" clip-path="url(#terminal-line-1)">│</text><text class="terminal-r4" x="36.6" y="44.4" textLength="524.6" clip-path="url(#terminal-line-1)">Select&#160;a&#160;setting,&#160;Enter&#160;to&#160;edit,&#160;S&#160;to&#160;save.</text><text class="terminal-r1" x="963.8" y="44.4" textLength="12.2" clip-path="url(#terminal-line-1)">│</text><text class="terminal-r3" x="976" y="44.4" textLength="12.2" clip-path="url(#terminal-line-1)">
</text><text class="terminal-r1" x="0" y="68.8" textLength="12.2" clip-path="url(#terminal-line-2)">│</text><text class="terminal-r5" x="36.6" y="68.8" textLength="36.6" clip-path="url(#terminal-line-2)">&#160;#&#160;</text><text class="terminal-r5" x="73.2" y="68.8" textLength="488" clip-path="url(#terminal-line-2)">&#160;Setting&#160;&#160;&#160;&#160;&#160;&#160;&#160;&#160;&#160;&#160;&#160;&#160;&#160;&#160;&#160;&#160;&#160;&#160;&#160;&#160;&#160;&#160;&#160;&#160;&#160;&#160;&#160;&#160;&#160;&#160;&#160;&#160;</text><text class="terminal-r5" x="561.2" y="68.8" textLength="146.4" clip-path="url(#terminal-line-2)">&#160;Value&#160;&#160;&#160;&#160;&#160;&#160;</text><text class="terminal-r1" x="963.8" y="68.8" textLength="12.2" clip-path="url(#terminal-line-2)">│</text><text class="terminal-r3" x="976" y="68.8" textLength="12.2" clip-path="url(#terminal-line-2)">
</text><text class="terminal-r1" x="0" y="93.2" textLength="12.2" clip-path="url(#terminal-line-3)">│</text><text class="terminal-r6" x="36.6" y="93.2" textLength="36.6" clip-path="url(#terminal-line-3)">&#160;1&#160;</text><text class="terminal-r6" x="73.2" y="93.2" textLength="488" clip-path="url(#terminal-line-3)">&#160;Menuconfig&#160;prompt&#160;before&#160;flash&#160;&#160;&#160;&#160;&#160;&#160;&#160;&#160;&#160;</text><text class="terminal-r6" x="561.2" y="93.2" textLength="146.4" clip-path="url(#terminal-line-3)">&#160;On&#160;&#160;&#160;&#160;&#160;&#160;&#160;&#160;&#160;</text><text class="terminal-r1" x="963.8" y="93.2" textLength="12.2" clip-path="url(#terminal-line-3)">│</text><text class="terminal-r3" x="976" y="93.2" textLength="12.2" clip-path="url(#terminal-line-3)">
</text><text class="terminal-r1" x="0" y="117.6" textLength="12.2" clip-path="url(#terminal-line-4)">│</text><text class="terminal-r5" x="48.8" y="117.6" textLength="12.2" clip-path="url(#terminal-line-4)">2</text><text class="terminal-r4" x="73.2" y="117.6" textLength="488" clip-path="url(#terminal-line-4)">&#160;Build&#160;acceleration&#160;(ccache)&#160;&#160;&#160;&#160;&#160;&#160;&#160;&#160;&#160;&#160;&#160;&#160;</text><text class="terminal-r7" x="573.4" y="117.6" textLength="36.6" clip-path="url(#terminal-line-4)">Off</text><text class="terminal-r1" x="963.8" y="117.6" textLength="12.2" clip-path="url(#terminal-line-4)">│</text><text class="terminal-r3" x="976" y="117.6" textLength="12.2" clip-path="url(#terminal-line-4)">
</text><text class="terminal-r1" x="0" y="142" textLength="12.2" clip-path="url(#terminal-line-5)">│</text><text class="terminal-r5" x="48.8" y="142" textLength="12.2" clip-path="url(#terminal-line-5)">3</text><text class="terminal-r4" x="73.2" y="142" textLength="488" clip-path="url(#terminal-line-5)">&#160;Flash&#160;stagger&#160;delay&#160;(seconds)&#160;&#160;&#160;&#160;&#160;&#160;&#160;&#160;&#160;&#160;</text><text class="terminal-r8" x="573.4" y="142" textLength="36.6" clip-path="url(#terminal-line-5)">2.0</text><text class="terminal-r1" x="963.8" y="142" textLength="12.2" clip-path="url(#terminal-line-5)">│</text><text class="terminal-r3" x="976" y="142" textLength="12.2" clip-path="url(#terminal-line-5)">
</text><text class="terminal-r1" x="0" y="166.4" textLength="12.2" clip-path="url(#terminal-line-6)">│</text><text class="terminal-r5" x="48.8" y="166.4" textLength="12.2" clip-path="url(#terminal-line-6)">4</text><text class="terminal-r4" x="73.2" y="166.4" textLength="488" clip-path="url(#terminal-line-6)">&#160;Menu&#160;return&#160;delay&#160;(seconds)&#160;&#160;&#160;&#160;&#160;&#160;&#160;&#160;&#160;&#160;&#160;&#160;</text><text class="terminal-r8" x="573.4" y="166.4" textLength="36.6" clip-path="url(#terminal-line-6)">5.0</text><text class="terminal-r1" x="963.8" y="166.4" textLength="12.2" clip-path="url(#terminal-line-6)">│</text><text class="terminal-r3" x="976" y="166.4" textLength="12.2" clip-path="url(#terminal-line-6)">
</text><text class="terminal-r1" x="0" y="190.8" textLength="12.2" clip-path="url(#terminal-line-7)">│</text><text class="terminal-r5" x="48.8" y="190.8" textLength="12.2" clip-path="url(#terminal-line-7)">5</text><text class="terminal-r4" x="73.2" y="190.8" textLength="488" clip-path="url(#terminal-line-7)">&#160;CAN&#160;flash&#160;stagger&#160;delay&#160;(seconds)&#160;&#160;&#160;&#160;&#160;&#160;</text><text class="terminal-r8" x="573.4" y="190.8" textLength="36.6" clip-path="url(#terminal-line-7)">5.0</text><text class="terminal-r1" x="963.8" y="190.8" textLength="12.2" clip-path="url(#terminal-line-7)">│</text><text class="terminal-r3" x="976" y="190.8" textLength="12.2" clip-path="url(#terminal-line-7)">
</text><text class="terminal-r1" x="0" y="215.2" textLength="12.2" clip-path="url(#terminal-line-8)">│</text><text class="terminal-r5" x="48.8" y="215.2" textLength="12.2" clip-path="url(#terminal-line-8)">6</text><text class="terminal-r4" x="73.2" y="215.2" textLength="488" clip-path="url(#terminal-line-8)">&#160;CAN&#160;bus&#160;scan&#160;on&#160;refresh&#160;[Experimental]&#160;</text><text class="terminal-r7" x="573.4" y="215.2" textLength="36.6" clip-path="url(#terminal-line-8)">Off</text><text class="terminal-r1" x="963.8" y="215.2" textLength="12.2" clip-path="url(#terminal-line-8)">│</text><text class="terminal-r3" x="976" y="215.2" textLength="12.2" clip-path="url(#terminal-line-8)">
</text><text class="terminal-r1" x="0" y="239.6" textLength="12.2" clip-path="url(#terminal-line-9)">│</text><text class="terminal-r5" x="48.8" y="239.6" textLength="12.2" clip-path="url(#terminal-line-9)">7</text><text class="terminal-r4" x="73.2" y="239.6" textLength="488" clip-path="url(#terminal-line-9)">&#160;Klipper&#160;directory&#160;&#160;&#160;&#160;&#160;&#160;&#160;&#160;&#160;&#160;&#160;&#160;&#160;&#160;&#160;&#160;&#160;&#160;&#160;&#160;&#160;&#160;</text><text class="terminal-r8" x="573.4" y="239.6" textLength="109.8" clip-path="url(#terminal-line-9)">~/klipper</text><text class="terminal-r1" x="963.8" y="239.6" textLength="12.2" clip-path="url(#terminal-line-9)">│</text><text class="terminal-r3" x="976" y="239.6" textLength="12.2" clip-path="url(#terminal-line-9)">
</text><text class="terminal-r1" x="0" y="264" textLength="12.2" clip-path="url(#terminal-line-10)">│</text><text class="terminal-r5" x="48.8" y="264" textLength="12.2" clip-path="url(#terminal-line-10)">8</text><text class="terminal-r4" x="73.2" y="264" textLength="488" clip-path="url(#terminal-line-10)">&#160;Katapult&#160;directory&#160;&#160;&#160;&#160;&#160;&#160;&#160;&#160;&#160;&#160;&#160;&#160;&#160;&#160;&#160;&#160;&#160;&#160;&#160;&#160;&#160;</text><text class="terminal-r8" x="573.4" y="264" textLength="122" clip-path="url(#terminal-line-10)">~/katapult</text><text class="terminal-r1" x="963.8" y="264" textLength="12.2" clip-path="url(#terminal-line-10)">│</text><text class="terminal-r3" x="976" y="264" textLength="12.2" clip-path="url(#terminal-line-10)">
</text><text class="terminal-r1" x="0" y="288.4" textLength="976" clip-path="url(#terminal-line-11)">╰──────────────────────────────────────────────────────────────────────────────╯</text><text class="terminal-r3" x="976" y="288.4" textLength="12.2" clip-path="url(#terminal-line-11)">
</text><text class="terminal-r3" x="976" y="312.8" textLength="12.2" clip-path="url(#terminal-line-12)">
</text><text class="terminal-r3" x="976" y="337.2" textLength="12.2" clip-path="url(#terminal-line-13)">
</text><text class="terminal-r3" x="976" y="361.6" textLength="12.2" clip-path="url(#terminal-line-14)">
</text><text class="terminal-r3" x="976" y="386" textLength="12.2" clip-path="url(#terminal-line-15)">
</text><text class="terminal-r3" x="976" y="410.4" textLength="12.2" clip-path="url(#terminal-line-16)">
</text><text class="terminal-r3" x="976" y="434.8" textLength="12.2" clip-path="url(#terminal-line-17)">
</text><text class="terminal-r3" x="976" y="459.2" textLength="12.2" clip-path="url(#terminal-line-18)">
</text><text class="terminal-r3" x="976" y="483.6" textLength="12.2" clip-path="url(#terminal-line-19)">
</text><text class="terminal-r3" x="976" y="508" textLength="12.2" clip-path="url(#terminal-line-20)">
</text><text class="terminal-r3" x="976" y="532.4" textLength="12.2" clip-path="url(#terminal-line-21)">
</text><text class="terminal-r3" x="976" y="556.8" textLength="12.2" clip-path="url(#terminal-line-22)">
</text><text class="terminal-r3" x="976" y="581.2" textLength="12.2" clip-path="url(#terminal-line-23)">
</text><text class="terminal-r3" x="976" y="605.6" textLength="12.2" clip-path="url(#terminal-line-24)">
</text><text class="terminal-r3" x="976" y="630" textLength="12.2" clip-path="url(#terminal-line-25)">
</text><text class="terminal-r3" x="976" y="654.4" textLength="12.2" clip-path="url(#terminal-line-26)">
</text><text class="terminal-r3" x="976" y="678.8" textLength="12.2" clip-path="url(#terminal-line-27)">
</text><text class="terminal-r3" x="976" y="703.2" textLength="12.2" clip-path="url(#terminal-line-28)">
</text><text class="terminal-r3" x="976" y="727.6" textLength="12.2" clip-path="url(#terminal-line-29)">
</text><text class="terminal-r3" x="976" y="752" textLength="12.2" clip-path="url(#terminal-line-30)">
</text><text class="terminal-r2" x="12.2" y="776.4" textLength="61" clip-path="url(#terminal-line-31)">Up/Dn</text><text class="terminal-r7" x="85.4" y="776.4" textLength="48.8" clip-path="url(#terminal-line-31)">Move</text><text class="terminal-r2" x="170.8" y="776.4" textLength="61" clip-path="url(#terminal-line-31)">Enter</text><text class="terminal-r7" x="244" y="776.4" textLength="48.8" clip-path="url(#terminal-line-31)">Edit</text><text class="terminal-r2" x="329.4" y="776.4" textLength="12.2" clip-path="url(#terminal-line-31)">S</text><text class="terminal-r7" x="353.8" y="776.4" textLength="48.8" clip-path="url(#terminal-line-31)">Save</text><text class="terminal-r2" x="439.2" y="776.4" textLength="36.6" clip-path="url(#terminal-line-31)">Esc</text><text class="terminal-r7" x="488" y="776.4" textLength="48.8" clip-path="url(#terminal-line-31)">Back</text>
    </g>
    </g>
</svg>
