<svg class="rich-terminal" viewBox="0 0 994 1026.0" xmlns="http://www.w3.org/2000/svg">
    <!-- Generated with Rich https://www.textualize.io -->
    <style>

    @font-face {
        font-family: "Fira Code";
        src: local("FiraCode-Regular"),
                url("https://cdnjs.cloudflare.com/ajax/libs/firacode/6.2.0/woff2/FiraCode-Regular.woff2") format("woff2"),
                url("https://cdnjs.cloudflare.com/ajax/libs/firacode/6.2.0/woff/FiraCode-Regular.woff") format("woff");
        font-style: normal;
        font-weight: 400;
    }
    @font-face {
        font-family: "Fira Code";
        src: local("FiraCode-Bold"),
                url("https://cdnjs.cloudflare.com/ajax/libs/firacode/6.2.0/woff2/FiraCode-Bold.woff2") format("woff2"),
                url("https://cdnjs.cloudflare.com/ajax/libs/firacode/6.2.0/woff/FiraCode-Bold.woff") format("woff");
        font-style: bold;
        font-weight: 700;
    }

    .terminal-matrix {
        font-family: Fira Code, monospace;
        font-size: 20px;
        line-height: 24.4px;
        font-variant-east-asian: full-width;
    }

    .terminal-title {
        font-size: 18px;
        font-weight: bold;
        font-family: arial;
    }

    .terminal-r1 { fill: #64a0b4 }
.terminal-r2 { fill: #82c8dc;font-weight: bold }
.terminal-r3 { fill: #0c1013 }
.terminal-r4 { fill: #c5c8c6 }
.terminal-r5 { fill: #82c8dc }
.terminal-r6 { fill: #dce1e6 }
.terminal-r7 { fill: #647882 }
.terminal-r8 { fill: #50c878 }
.terminal-r9 { fill: #c8d2d7 }
.terminal-r10 { fill: #dcbe3c }
.terminal-r11 { fill: #000000 }
    </style>

    <defs>
    <clipPath id="terminal-clip-terminal">
      <rect x="0" y="0" width="975.0" height="975.0" />
    </clipPath>
    <clipPath id="terminal-line-0">
    <rect x="0" y="1.5" width="976" height="24.65"/>
            </clipPath>
<clipPath id="terminal-line-1">
    <rect x="0" y="25.9" width="976" height="24.65"/>
            </clipPath>
<clipPath id="terminal-line-2">
    <rect x="0" y="50.3" width="976" height="24.65"/>
            </clipPath>
<clipPath id="terminal-line-3">
    <rect x="0" y="74.7" width="976" height="24.65"/>
            </clipPath>
<clipPath id="terminal-line-4">
    <rect x="0" y="99.1" width="976" height="24.65"/>
            </clipPath>
<clipPath id="terminal-line-5">
    <rect x="0" y="123.5" width="976" height="24.65"/>
            </clipPath>
<clipPath id="terminal-line-6">
    <rect x="0" y="147.9" width="976" height="24.65"/>
            </clipPath>
<clipPath id="terminal-line-7">
    <rect x="0" y="172.3" width="976" height="24.65"/>
            </clipPath>
<clipPath id="terminal-line-8">
    <rect x="0" y="196.7" width="976" height="24.65"/>
            </clipPath>
<clipPath id="terminal-line-9">
    <rect x="0" y="221.1" width="976" height="24.65"/>
            </clipPath>
<clipPath id="terminal-line-10">
    <rect x="0" y="245.5" width="976" height="24.65"/>
            </clipPath>
<clipPath id="terminal-line-11">
    <rect x="0" y="269.9" width="976" height="24.65"/>
            </clipPath>
<clipPath id="terminal-line-12">
    <rect x="0" y="294.3" width="976" height="24.65"/>
            </clipPath>
<clipPath id="terminal-line-13">
    <rect x="0" y="318.7" width="976" height="24.65"/>
            </clipPath>
<clipPath id="terminal-line-14">
    <rect x="0" y="343.1" width="976" height="24.65"/>
            </clipPath>
<clipPath id="terminal-line-15">
    <rect x="0" y="367.5" width="976" height="24.65"/>
            </clipPath>
<clipPath id="terminal-line-16">
    <rect x="0" y="391.9" width="976" height="24.65"/>
            </clipPath>
<clipPath id="terminal-line-17">
    <rect x="0" y="416.3" width="976" height="24.65"/>
            </clipPath>
<clipPath id="terminal-line-18">
    <rect x="0" y="440.7" width="976" height="24.65"/>
            </clipPath>
<clipPath id="terminal-line-19">
    <rect x="0" y="465.1" width="976" height="24.65"/>
            </clipPath>
<clipPath id="terminal-line-20">
    <rect x="0" y="489.5" width="976" height="24.65"/>
            </clipPath>
<clipPath id="terminal-line-21">
    <rect x="0" y="513.9" width="976" height="24.65"/>
            </clipPath>
<clipPath id="terminal-line-22">
    <rect x="0" y="538.3" width="976" height="24.65"/>
            </clipPath>
<clipPath id="terminal-line-23">
    <rect x="0" y="562.7" width="976" height="24.65"/>
            </clipPath>
<clipPath id="terminal-line-24">
    <rect x="0" y="587.1" width="976" height="24.65"/>
            </clipPath>
<clipPath id="terminal-line-25">
    <rect x="0" y="611.5" width="976" height="24.65"/>
            </clipPath>
<clipPath id="terminal-line-26">
    <rect x="0" y="635.9" width="976" height="24.65"/>
            </clipPath>
<clipPath id="terminal-line-27">
    <rect x="0" y="660.3" width="976" height="24.65"/>
            </clipPath>
<clipPath id="terminal-line-28">
    <rect x="0" y="684.7" width="976" height="24.65"/>
            </clipPath>
<clipPath id="terminal-line-29">
    <rect x="0" y="709.1" width="976" height="24.65"/>
            </clipPath>
<clipPath id="terminal-line-30">
    <rect x="0" y="733.5" width="976" height="24.65"/>
            </clipPath>
<clipPath id="terminal-line-31">
    <rect x="0" y="757.9" width="976" height="24.65"/>
            </clipPath>
<clipPath id="terminal-line-32">
    <rect x="0" y="782.3" width="976" height="24.65"/>
            </clipPath>
<clipPath id="terminal-line-33">
    <rect x="0" y="806.7" width="976" height="24.65"/>
            </clipPath>
<clipPath id="terminal-line-34">
    <rect x="0" y="831.1" width="976" height="24.65"/>
            </clipPath>
<clipPath id="terminal-line-35">
    <rect x="0" y="855.5" width="976" height="24.65"/>
            </clipPath>
<clipPath id="terminal-line-36">
    <rect x="0" y="879.9" width="976" height="24.65"/>
            </clipPath>
<clipPath id="terminal-line-37">
    <rect x="0" y="904.3" width="976" height="24.65"/>
            </clipPath>
<clipPath id="terminal-line-38">
    <rect x="0" y="928.7" width="976" height="24.65"/>
            </clipPath>
    </defs>

    <rect fill="#292929" stroke="rgba(255,255,255,0.35)" stroke-width="1" x="1" y="1" width="992" height="1024" rx="8"/><text class="terminal-title" fill="#c5c8c6" text-anchor="middle" x="496" y="27">OpSnapshotApp</text>
            <g transform="translate(26,22)">
            <circle cx="0" cy="0" r="7" fill="#ff5f57"/>
            <circle cx="22" cy="0" r="7" fill="#febc2e"/>
            <circle cx="44" cy="0" r="7" fill="#28c840"/>
            </g>
        
    <g transform="translate(9, 41)" clip-path="url(#terminal-clip-terminal)">
    <rect fill="#0c1013" x="0" y="1.5" width="24.4" height="24.65" shape-rendering="crispEdges"/><rect fill="#0c1013" x="24.4" y="1.5" width="280.6" height="24.65" shape-rendering="crispEdges"/><rect fill="#0c1013" x="305" y="1.5" width="646.6" height="24.65" shape-rendering="crispEdges"/><rect fill="#345058" x="951.6" y="1.5" width="24.4" height="24.65" shape-rendering="crispEdges"/><rect fill="#0c1013" x="0" y="25.9" width="12.2" height="24.65" shape-rendering="crispEdges"/><rect fill="#0c1013" x="12.2" y="25.9" width="24.4" height="24.65" shape-rendering="crispEdges"/><rect fill="#0c1013" x="36.6" y="25.9" width="122" height="24.65" shape-rendering="crispEdges"/><rect fill="#0c1013" x="158.6" y="25.9" width="134.2" height="24.65" shape-rendering="crispEdges"/><rect fill="#0c1013" x="292.8" y="25.9" width="646.6" height="24.65" shape-rendering="crispEdges"/><rect fill="#0c1013" x="939.4" y="25.9" width="12.2" height="24.65" shape-rendering="crispEdges"/><rect fill="#345058" x="951.6" y="25.9" width="24.4" height="24.65" shape-rendering="crispEdges"/><rect fill="#0c1013" x="0" y="50.3" width="951.6" height="24.65" shape-rendering="crispEdges"/><rect fill="#345058" x="951.6" y="50.3" width="24.4" height="24.65" shape-rendering="crispEdges"/><rect fill="#0c1013" x="0" y="74.7" width="951.6" height="24.65" shape-rendering="crispEdges"/><rect fill="#345058" x="951.6" y="74.7" width="24.4" height="24.65" shape-rendering="crispEdges"/><rect fill="#0c1013" x="0" y="99.1" width="24.4" height="24.65" shape-rendering="crispEdges"/><rect fill="#0c1013" x="24.4" y="99.1" width="207.4" height="24.65" shape-rendering="crispEdges"/><rect fill="#0c1013" x="231.8" y="99.1" width="719.8" height="24.65" shape-rendering="crispEdges"/><rect fill="#345058" x="951.6" y="99.1" width="24.4" height="24.65" shape-rendering="crispEdges"/><rect fill="#0c1013" x="0" y="123.5" width="12.2" height="24.65" shape-rendering="crispEdges"/><rect fill="#0c1013" x="12.2" y="123.5" width="24.4" height="24.65" shape-rendering="crispEdges"/><rect fill="#0c1013" x="36.6" y="123.5" width="61" height="24.65" shape-rendering="crispEdges"/><rect fill="#0c1013" x="97.6" y="123.5" width="122" height="24.65" shape-rendering="crispEdges"/><rect fill="#0c1013" x="219.6" y="123.5" width="719.8" height="24.65" shape-rendering="crispEdges"/><rect fill="#0c1013" x="939.4" y="123.5" width="12.2" height="24.65" shape-rendering="crispEdges"/><rect fill="#345058" x="951.6" y="123.5" width="24.4" height="24.65" shape-rendering="crispEdges"/><rect fill="#0c1013" x="0" y="147.9" width="12.2" height="24.65" shape-rendering="crispEdges"/><rect fill="#0c1013" x="12.2" y="147.9" width="24.4" height="24.65" shape-rendering="crispEdges"/><rect fill="#0c1013" x="36.6" y="147.9" width="61" height="24.65" shape-rendering="crispEdges"/><rect fill="#0c1013" x="97.6" y="147.9" width="122" height="24.65" shape-rendering="crispEdges"/><rect fill="#0c1013" x="219.6" y="147.9" width="719.8" height="24.65" shape-rendering="crispEdges"/><rect fill="#0c1013" x="939.4" y="147.9" width="12.2" height="24.65" shape-rendering="crispEdges"/><rect fill="#345058" x="951.6" y="147.9" width="24.4" height="24.65" shape-rendering="crispEdges"/><rect fill="#0c1013" x="0" y="172.3" width="12.2" height="24.65" shape-rendering="crispEdges"/><rect fill="#0c1013" x="12.2" y="172.3" width="24.4" height="24.65" shape-rendering="crispEdges"/><rect fill="#0c1013" x="36.6" y="172.3" width="61" height="24.65" shape-rendering="crispEdges"/><rect fill="#0c1013" x="97.6" y="172.3" width="122" height="24.65" shape-rendering="crispEdges"/><rect fill="#0c1013" x="219.6" y="172.3" width="719.8" height="24.65" shape-rendering="crispEdges"/><rect fill="#0c1013" x="939.4" y="172.3" width="12.2" height="24.65" shape-rendering="crispEdges"/><rect fill="#345058" x="951.6" y="172.3" width="24.4" height="24.65" shape-rendering="crispEdges"/><rect fill="#0c1013" x="0" y="196.7" width="12.2" height="24.65" shape-rendering="crispEdges"/><rect fill="#0c1013" x="12.2" y="196.7" width="24.4" height="24.65" shape-rendering="crispEdges"/><rect fill="#0c1013" x="36.6" y="196.7" width="61" height="24.65" shape-rendering="crispEdges"/><rect fill="#0c1013" x="97.6" y="196.7" width="122" height="24.65" shape-rendering="crispEdges"/><rect fill="#0c1013" x="219.6" y="196.7" width="97.6" height="24.65" shape-rendering="crispEdges"/><rect fill="#0c1013" x="317.2" y="196.7" width="622.2" height="24.65" shape-rendering="crispEdges"/><rect fill="#0c1013" x="939.4" y="196.7" width="12.2" height="24.65" shape-rendering="crispEdges"/><rect fill="#345058" x="951.6" y="196.7" width="24.4" height="24.65" shape-rendering="crispEdges"/><rect fill="#0c1013" x="0" y="221.1" width="12.2" height="24.65" shape-rendering="crispEdges"/><rect fill="#0c1013" x="12.2" y="221.1" width="24.4" height="24.65" shape-rendering="crispEdges"/><rect fill="#0c1013" x="36.6" y="221.1" width="61" height="24.65" shape-rendering="crispEdges"/><rect fill="#0c1013" x="97.6" y="221.1" width="122" height="24.65" shape-rendering="crispEdges"/><rect fill="#0c1013" x="219.6" y="221.1" width="97.6" height="24.65" shape-rendering="crispEdges"/><rect fill="#0c1013" x="317.2" y="221.1" width="622.2" height="24.65" shape-rendering="crispEdges"/><rect fill="#0c1013" x="939.4" y="221.1" width="12.2" height="24.65" shape-rendering="crispEdges"/><rect fill="#345058" x="951.6" y="221.1" width="24.4" height="24.65" shape-rendering="crispEdges"/><rect fill="#0c1013" x="0" y="245.5" width="12.2" height="24.65" shape-rendering="crispEdges"/><rect fill="#0c1013" x="12.2" y="245.5" width="24.4" height="24.65" shape-rendering="crispEdges"/><rect fill="#0c1013" x="36.6" y="245.5" width="61" height="24.65" shape-rendering="crispEdges"/><rect fill="#0c1013" x="97.6" y="245.5" width="122" height="24.65" shape-rendering="crispEdges"/><rect fill="#0c1013" x="219.6" y="245.5" width="719.8" height="24.65" shape-rendering="crispEdges"/><rect fill="#0c1013" x="939.4" y="245.5" width="12.2" height="24.65" shape-rendering="crispEdges"/><rect fill="#345058" x="951.6" y="245.5" width="24.4" height="24.65" shape-rendering="crispEdges"/><rect fill="#0c1013" x="0" y="269.9" width="12.2" height="24.65" shape-rendering="crispEdges"/><rect fill="#0c1013" x="12.2" y="269.9" width="24.4" height="24.65" shape-rendering="crispEdges"/><rect fill="#0c1013" x="36.6" y="269.9" width="61" height="24.65" shape-rendering="crispEdges"/><rect fill="#0c1013" x="97.6" y="269.9" width="122" height="24.65" shape-rendering="crispEdges"/><rect fill="#0c1013" x="219.6" y="269.9" width="719.8" height="24.65" shape-rendering="crispEdges"/><rect fill="#0c1013" x="939.4" y="269.9" width="12.2" height="24.65" shape-rendering="crispEdges"/><rect fill="#345058" x="951.6" y="269.9" width="24.4" height="24.65" shape-rendering="crispEdges"/><rect fill="#0c1013" x="0" y="294.3" width="12.2" height="24.65" shape-rendering="crispEdges"/><rect fill="#0c1013" x="12.2" y="294.3" width="24.4" height="24.65" shape-rendering="crispEdges"/><rect fill="#0c1013" x="36.6" y="294.3" width="61" height="24.65" shape-rendering="crispEdges"/><rect fill="#0c1013" x="97.6" y="294.3" width="122" height="24.65" shape-rendering="crispEdges"/><rect fill="#0c1013" x="219.6" y="294.3" width="719.8" height="24.65" shape-rendering="crispEdges"/><rect fill="#0c1013" x="939.4" y="294.3" width="12.2" height="24.65" shape-rendering="crispEdges"/><rect fill="#345058" x="951.6" y="294.3" width="24.4" height="24.65" shape-rendering="crispEdges"/><rect fill="#0c1013" x="0" y="318.7" width="12.2" height="24.65" shape-rendering="crispEdges"/><rect fill="#0c1013" x="12.2" y="318.7" width="24.4" height="24.65" shape-rendering="crispEdges"/><rect fill="#0c1013" x="36.6" y="318.7" width="61" height="24.65" shape-rendering="crispEdges"/><rect fill="#0c1013" x="97.6" y="318.7" width="122" height="24.65" shape-rendering="crispEdges"/><rect fill="#0c1013" x="219.6" y="318.7" width="719.8" height="24.65" shape-rendering="crispEdges"/><rect fill="#0c1013" x="939.4" y="318.7" width="12.2" height="24.65" shape-rendering="crispEdges"/><rect fill="#345058" x="951.6" y="318.7" width="24.4" height="24.65" shape-rendering="crispEdges"/><rect fill="#0c1013" x="0" y="343.1" width="951.6" height="24.65" shape-rendering="crispEdges"/><rect fill="#345058" x="951.6" y="343.1" width="24.4" height="24.65" shape-rendering="crispEdges"/><rect fill="#0c1013" x="0" y="367.5" width="951.6" height="24.65" shape-rendering="crispEdges"/><rect fill="#345058" x="951.6" y="367.5" width="24.4" height="24.65" shape-rendering="crispEdges"/><rect fill="#0c1013" x="0" y="391.9" width="24.4" height="24.65" shape-rendering="crispEdges"/><rect fill="#0c1013" x="24.4" y="391.9" width="256.2" height="24.65" shape-rendering="crispEdges"/><rect fill="#0c1013" x="280.6" y="391.9" width="671" height="24.65" shape-rendering="crispEdges"/><rect fill="#345058" x="951.6" y="391.9" width="24.4" height="24.65" shape-rendering="crispEdges"/><rect fill="#0c1013" x="0" y="416.3" width="12.2" height="24.65" shape-rendering="crispEdges"/><rect fill="#0c1013" x="12.2" y="416.3" width="24.4" height="24.65" shape-rendering="crispEdges"/><rect fill="#0c1013" x="36.6" y="416.3" width="122" height="24.65" shape-rendering="crispEdges"/><rect fill="#0c1013" x="158.6" y="416.3" width="780.8" height="24.65" shape-rendering="crispEdges"/><rect fill="#0c1013" x="939.4" y="416.3" width="12.2" height="24.65" shape-rendering="crispEdges"/><rect fill="#345058" x="951.6" y="416.3" width="24.4" height="24.65" shape-rendering="crispEdges"/><rect fill="#0c1013" x="0" y="440.7" width="12.2" height="24.65" shape-rendering="crispEdges"/><rect fill="#0c1013" x="12.2" y="440.7" width="24.4" height="24.65" shape-rendering="crispEdges"/><rect fill="#0c1013" x="36.6" y="440.7" width="366" height="24.65" shape-rendering="crispEdges"/><rect fill="#0c1013" x="402.6" y="440.7" width="451.4" height="24.65" shape-rendering="crispEdges"/><rect fill="#0c1013" x="854" y="440.7" width="24.4" height="24.65" shape-rendering="crispEdges"/><rect fill="#0c1013" x="878.4" y="440.7" width="36.6" height="24.65" shape-rendering="crispEdges"/><rect fill="#0c1013" x="915" y="440.7" width="24.4" height="24.65" shape-rendering="crispEdges"/><rect fill="#0c1013" x="939.4" y="440.7" width="12.2" height="24.65" shape-rendering="crispEdges"/><rect fill="#345058" x="951.6" y="440.7" width="24.4" height="24.65" shape-rendering="crispEdges"/><rect fill="#0c1013" x="0" y="465.1" width="951.6" height="24.65" shape-rendering="crispEdges"/><rect fill="#345058" x="951.6" y="465.1" width="24.4" height="24.65" shape-rendering="crispEdges"/><rect fill="#0c1013" x="0" y="489.5" width="951.6" height="24.65" shape-rendering="crispEdges"/><rect fill="#345058" x="951.6" y="489.5" width="24.4" height="24.65" shape-rendering="crispEdges"/><rect fill="#0c1013" x="0" y="513.9" width="24.4" height="24.65" shape-rendering="crispEdges"/><rect fill="#0c1013" x="24.4" y="513.9" width="134.2" height="24.65" shape-rendering="crispEdges"/><rect fill="#0c1013" x="158.6" y="513.9" width="793" height="24.65" shape-rendering="crispEdges"/><rect fill="#345058" x="951.6" y="513.9" width="24.4" height="24.65" shape-rendering="crispEdges"/><rect fill="#0c1013" x="0" y="538.3" width="12.2" height="24.65" shape-rendering="crispEdges"/><rect fill="#0c1013" x="12.2" y="538.3" width="24.4" height="24.65" shape-rendering="crispEdges"/><rect fill="#0c1013" x="36.6" y="538.3" width="353.8" height="24.65" shape-rendering="crispEdges"/><rect fill="#0c1013" x="390.4" y="538.3" width="500.2" height="24.65" shape-rendering="crispEdges"/><rect fill="#000000" x="890.6" y="538.3" width="24.4" height="24.65" shape-rendering="crispEdges"/><rect fill="#0c1013" x="915" y="538.3" width="24.4" height="24.65" shape-rendering="crispEdges"/><rect fill="#0c1013" x="939.4" y="538.3" width="12.2" height="24.65" shape-rendering="crispEdges"/><rect fill="#345058" x="951.6" y="538.3" width="24.4" height="24.65" shape-rendering="crispEdges"/><rect fill="#0c1013" x="0" y="562.7" width="12.2" height="24.65" shape-rendering="crispEdges"/><rect fill="#0c1013" x="12.2" y="562.7" width="24.4" height="24.65" shape-rendering="crispEdges"/><rect fill="#0c1013" x="36.6" y="562.7" width="402.6" height="24.65" shape-rendering="crispEdges"/><rect fill="#0c1013" x="439.2" y="562.7" width="451.4" height="24.65" shape-rendering="crispEdges"/><rect fill="#000000" x="890.6" y="562.7" width="24.4" height="24.65" shape-rendering="crispEdges"/><rect fill="#0c1013" x="915" y="562.7" width="24.4" height="24.65" shape-rendering="crispEdges"/><rect fill="#0c1013" x="939.4" y="562.7" width="12.2" height="24.65" shape-rendering="crispEdges"/><rect fill="#345058" x="951.6" y="562.7" width="24.4" height="24.65" shape-rendering="crispEdges"/><rect fill="#0c1013" x="0" y="587.1" width="12.2" height="24.65" shape-rendering="crispEdges"/><rect fill="#0c1013" x="12.2" y="587.1" width="24.4" height="24.65" shape-rendering="crispEdges"/><rect fill="#0c1013" x="36.6" y="587.1" width="439.2" height="24.65" shape-rendering="crispEdges"/><rect fill="#0c1013" x="475.8" y="587.1" width="414.8" height="24.65" shape-rendering="crispEdges"/><rect fill="#000000" x="890.6" y="587.1" width="24.4" height="24.65" shape-rendering="crispEdges"/><rect fill="#0c1013" x="915" y="587.1" width="24.4" height="24.65" shape-rendering="crispEdges"/><rect fill="#0c1013" x="939.4" y="587.1" width="12.2" height="24.65" shape-rendering="crispEdges"/><rect fill="#345058" x="951.6" y="587.1" width="24.4" height="24.65" shape-rendering="crispEdges"/><rect fill="#0c1013" x="0" y="611.5" width="12.2" height="24.65" shape-rendering="crispEdges"/><rect fill="#0c1013" x="12.2" y="611.5" width="24.4" height="24.65" shape-rendering="crispEdges"/><rect fill="#0c1013" x="36.6" y="611.5" width="195.2" height="24.65" shape-rendering="crispEdges"/><rect fill="#0c1013" x="231.8" y="611.5" width="658.8" height="24.65" shape-rendering="crispEdges"/><rect fill="#000000" x="890.6" y="611.5" width="24.4" height="24.65" shape-rendering="crispEdges"/><rect fill="#0c1013" x="915" y="611.5" width="24.4" height="24.65" shape-rendering="crispEdges"/><rect fill="#0c1013" x="939.4" y="611.5" width="12.2" height="24.65" shape-rendering="crispEdges"/><rect fill="#000000" x="951.6" y="611.5" width="24.4" height="24.65" shape-rendering="crispEdges"/><rect fill="#0c1013" x="0" y="635.9" width="12.2" height="24.65" shape-rendering="crispEdges"/><rect fill="#0c1013" x="12.2" y="635.9" width="24.4" height="24.65" shape-rendering="crispEdges"/><rect fill="#0c1013" x="36.6" y="635.9" width="854" height="24.65" shape-rendering="crispEdges"/><rect fill="#000000" x="890.6" y="635.9" width="24.4" height="24.65" shape-rendering="crispEdges"/><rect fill="#0c1013" x="915" y="635.9" width="24.4" height="24.65" shape-rendering="crispEdges"/><rect fill="#0c1013" x="939.4" y="635.9" width="12.2" height="24.65" shape-rendering="crispEdges"/><rect fill="#000000" x="951.6" y="635.9" width="24.4" height="24.65" shape-rendering="crispEdges"/><rect fill="#0c1013" x="0" y="660.3" width="12.2" height="24.65" shape-rendering="crispEdges"/><rect fill="#0c1013" x="12.2" y="660.3" width="24.4" height="24.65" shape-rendering="crispEdges"/><rect fill="#0c1013" x="36.6" y="660.3" width="854" height="24.65" shape-rendering="crispEdges"/><rect fill="#000000" x="890.6" y="660.3" width="24.4" height="24.65" shape-rendering="crispEdges"/><rect fill="#0c1013" x="915" y="660.3" width="24.4" height="24.65" shape-rendering="crispEdges"/><rect fill="#0c1013" x="939.4" y="660.3" width="12.2" height="24.65" shape-rendering="crispEdges"/><rect fill="#000000" x="951.6" y="660.3" width="24.4" height="24.65" shape-rendering="crispEdges"/><rect fill="#0c1013" x="0" y="684.7" width="12.2" height="24.65" shape-rendering="crispEdges"/><rect fill="#0c1013" x="12.2" y="684.7" width="24.4" height="24.65" shape-rendering="crispEdges"/><rect fill="#0c1013" x="36.6" y="684.7" width="854" height="24.65" shape-rendering="crispEdges"/><rect fill="#000000" x="890.6" y="684.7" width="24.4" height="24.65" shape-rendering="crispEdges"/><rect fill="#0c1013" x="915" y="684.7" width="24.4" height="24.65" shape-rendering="crispEdges"/><rect fill="#0c1013" x="939.4" y="684.7" width="12.2" height="24.65" shape-rendering="crispEdges"/><rect fill="#000000" x="951.6" y="684.7" width="24.4" height="24.65" shape-rendering="crispEdges"/><rect fill="#0c1013" x="0" y="709.1" width="12.2" height="24.65" shape-rendering="crispEdges"/><rect fill="#0c1013" x="12.2" y="709.1" width="24.4" height="24.65" shape-rendering="crispEdges"/><rect fill="#0c1013" x="36.6" y="709.1" width="854" height="24.65" shape-rendering="crispEdges"/><rect fill="#000000" x="890.6" y="709.1" width="24.4" height="24.65" shape-rendering="crispEdges"/><rect fill="#0c1013" x="915" y="709.1" width="24.4" height="24.65" shape-rendering="crispEdges"/><rect fill="#0c1013" x="939.4" y="709.1" width="12.2" height="24.65" shape-rendering="crispEdges"/><rect fill="#000000" x="951.6" y="709.1" width="24.4" height="24.65" shape-rendering="crispEdges"/><rect fill="#0c1013" x="0" y="733.5" width="12.2" height="24.65" shape-rendering="crispEdges"/><rect fill="#0c1013" x="12.2" y="733.5" width="24.4" height="24.65" shape-rendering="crispEdges"/><rect fill="#0c1013" x="36.6" y="733.5" width="854" height="24.65" shape-rendering="crispEdges"/><rect fill="#000000" x="890.6" y="733.5" width="24.4" height="24.65" shape-rendering="crispEdges"/><rect fill="#0c1013" x="915" y="733.5" width="24.4" height="24.65" shape-rendering="crispEdges"/><rect fill="#0c1013" x="939.4" y="733.5" width="12.2" height="24.65" shape-rendering="crispEdges"/><rect fill="#000000" x="951.6" y="733.5" width="24.4" height="24.65" shape-rendering="crispEdges"/><rect fill="#0c1013" x="0" y="757.9" width="12.2" height="24.65" shape-rendering="crispEdges"/><rect fill="#0c1013" x="12.2" y="757.9" width="24.4" height="24.65" shape-rendering="crispEdges"/><rect fill="#0c1013" x="36.6" y="757.9" width="854" height="24.65" shape-rendering="crispEdges"/><rect fill="#000000" x="890.6" y="757.9" width="24.4" height="24.65" shape-rendering="crispEdges"/><rect fill="#0c1013" x="915" y="757.9" width="24.4" height="24.65" shape-rendering="crispEdges"/><rect fill="#0c1013" x="939.4" y="757.9" width="12.2" height="24.65" shape-rendering="crispEdges"/><rect fill="#000000" x="951.6" y="757.9" width="24.4" height="24.65" shape-rendering="crispEdges"/><rect fill="#0c1013" x="0" y="782.3" width="12.2" height="24.65" shape-rendering="crispEdges"/><rect fill="#0c1013" x="12.2" y="782.3" width="24.4" height="24.65" shape-rendering="crispEdges"/><rect fill="#0c1013" x="36.6" y="782.3" width="854" height="24.65" shape-rendering="crispEdges"/><rect fill="#000000" x="890.6" y="782.3" width="24.4" height="24.65" shape-rendering="crispEdges"/><rect fill="#0c1013" x="915" y="782.3" width="24.4" height="24.65" shape-rendering="crispEdges"/><rect fill="#0c1013" x="939.4" y="782.3" width="12.2" height="24.65" shape-rendering="crispEdges"/><rect fill="#000000" x="951.6" y="782.3" width="24.4" height="24.65" shape-rendering="crispEdges"/><rect fill="#0c1013" x="0" y="806.7" width="12.2" height="24.65" shape-rendering="crispEdges"/><rect fill="#0c1013" x="12.2" y="806.7" width="24.4" height="24.65" shape-rendering="crispEdges"/><rect fill="#0c1013" x="36.6" y="806.7" width="854" height="24.65" shape-rendering="crispEdges"/><rect fill="#000000" x="890.6" y="806.7" width="24.4" height="24.65" shape-rendering="crispEdges"/><rect fill="#0c1013" x="915" y="806.7" width="24.4" height="24.65" shape-rendering="crispEdges"/><rect fill="#0c1013" x="939.4" y="806.7" width="12.2" height="24.65" shape-rendering="crispEdges"/><rect fill="#000000" x="951.6" y="806.7" width="24.4" height="24.65" shape-rendering="crispEdges"/><rect fill="#0c1013" x="0" y="831.1" width="12.2" height="24.65" shape-rendering="crispEdges"/><rect fill="#0c1013" x="12.2" y="831.1" width="24.4" height="24.65" shape-rendering="crispEdges"/><rect fill="#0c1013" x="36.6" y="831.1" width="854" height="24.65" shape-rendering="crispEdges"/><rect fill="#000000" x="890.6" y="831.1" width="24.4" height="24.65" shape-rendering="crispEdges"/><rect fill="#0c1013" x="915" y="831.1" width="24.4" height="24.65" shape-rendering="crispEdges"/><rect fill="#0c1013" x="939.4" y="831.1" width="12.2" height="24.65" shape-rendering="crispEdges"/><rect fill="#000000" x="951.6" y="831.1" width="24.4" height="24.65" shape-rendering="crispEdges"/><rect fill="#0c1013" x="0" y="855.5" width="12.2" height="24.65" shape-rendering="crispEdges"/><rect fill="#0c1013" x="12.2" y="855.5" width="24.4" height="24.65" shape-rendering="crispEdges"/><rect fill="#0c1013" x="36.6" y="855.5" width="854" height="24.65" shape-rendering="crispEdges"/><rect fill="#000000" x="890.6" y="855.5" width="24.4" height="24.65" shape-rendering="crispEdges"/><rect fill="#0c1013" x="915" y="855.5" width="24.4" height="24.65" shape-rendering="crispEdges"/><rect fill="#0c1013" x="939.4" y="855.5" width="12.2" height="24.65" shape-rendering="crispEdges"/><rect fill="#000000" x="951.6" y="855.5" width="24.4" height="24.65" shape-rendering="crispEdges"/><rect fill="#0c1013" x="0" y="879.9" width="12.2" height="24.65" shape-rendering="crispEdges"/><rect fill="#0c1013" x="12.2" y="879.9" width="24.4" height="24.65" shape-rendering="crispEdges"/><rect fill="#0c1013" x="36.6" y="879.9" width="854" height="24.65" shape-rendering="crispEdges"/><rect fill="#000000" x="890.6" y="879.9" width="24.4" height="24.65" shape-rendering="crispEdges"/><rect fill="#0c1013" x="915" y="879.9" width="24.4" height="24.65" shape-rendering="crispEdges"/><rect fill="#0c1013" x="939.4" y="879.9" width="12.2" height="24.65" shape-rendering="crispEdges"/><rect fill="#000000" x="951.6" y="879.9" width="24.4" height="24.65" shape-rendering="crispEdges"/><rect fill="#0c1013" x="0" y="904.3" width="12.2" height="24.65" shape-rendering="crispEdges"/><rect fill="#0c1013" x="12.2" y="904.3" width="24.4" height="24.65" shape-rendering="crispEdges"/><rect fill="#0c1013" x="36.6" y="904.3" width="854" height="24.65" shape-rendering="crispEdges"/><rect fill="#000000" x="890.6" y="904.3" width="24.4" height="24.65" shape-rendering="crispEdges"/><rect fill="#0c1013" x="915" y="904.3" width="24.4" height="24.65" shape-rendering="crispEdges"/><rect fill="#0c1013" x="939.4" y="904.3" width="12.2" height="24.65" shape-rendering="crispEdges"/><rect fill="#000000" x="951.6" y="904.3" width="24.4" height="24.65" shape-rendering="crispEdges"/><rect fill="#0c1013" x="0" y="928.7" width="0" height="24.65" shape-rendering="crispEdges"/><rect fill="#0c1013" x="0" y="928.7" width="976" height="24.65" shape-rendering="crispEdges"/><rect fill="#0c1013" x="0" y="953.1" width="244" height="24.65" shape-rendering="crispEdges"/><rect fill="#0c1013" x="244" y="953.1" width="732" height="24.65" shape-rendering="crispEdges"/>
    <g class="terminal-matrix">
    <text class="terminal-r1" x="0" y="20" textLength="24.4" clip-path="url(#terminal-line-0)">╭─</text><text class="terminal-r2" x="24.4" y="20" textLength="280.6" clip-path="url(#terminal-line-0)">&#160;[&#160;O&#160;P&#160;E&#160;R&#160;A&#160;T&#160;I&#160;O&#160;N&#160;]&#160;</text><text class="terminal-r1" x="305" y="20" textLength="646.6" clip-path="url(#terminal-line-0)">────────────────────────────────────────────────────╮</text><text class="terminal-r4" x="976" y="20" textLength="12.2" clip-path="url(#terminal-line-0)">
</text><text class="terminal-r1" x="0" y="44.4" textLength="12.2" clip-path="url(#terminal-line-1)">│</text><text class="terminal-r5" x="36.6" y="44.4" textLength="122" clip-path="url(#terminal-line-1)">Flashing&#160;&#160;</text><text class="terminal-r6" x="158.6" y="44.4" textLength="134.2" clip-path="url(#terminal-line-1)">Octopus&#160;Pro</text><text class="terminal-r1" x="939.4" y="44.4" textLength="12.2" clip-path="url(#terminal-line-1)">│</text><text class="terminal-r4" x="976" y="44.4" textLength="12.2" clip-path="url(#terminal-line-1)">
</text><text class="terminal-r1" x="0" y="68.8" textLength="951.6" clip-path="url(#terminal-line-2)">╰────────────────────────────────────────────────────────────────────────────╯</text><text class="terminal-r4" x="976" y="68.8" textLength="12.2" clip-path="url(#terminal-line-2)">
</text><text class="terminal-r4" x="976" y="93.2" textLength="12.2" clip-path="url(#terminal-line-3)">
</text><text class="terminal-r1" x="0" y="117.6" textLength="24.4" clip-path="url(#terminal-line-4)">╭─</text><text class="terminal-r2" x="24.4" y="117.6" textLength="207.4" clip-path="url(#terminal-line-4)">&#160;[&#160;P&#160;H&#160;A&#160;S&#160;E&#160;S&#160;]&#160;</text><text class="terminal-r1" x="231.8" y="117.6" textLength="719.8" clip-path="url(#terminal-line-4)">──────────────────────────────────────────────────────────╮</text><text class="terminal-r4" x="976" y="117.6" textLength="12.2" clip-path="url(#terminal-line-4)">
</text><text class="terminal-r1" x="0" y="142" textLength="12.2" clip-path="url(#terminal-line-5)">│</text><text class="terminal-r7" x="36.6" y="142" textLength="61" clip-path="url(#terminal-line-5)">[&#160;&#160;]&#160;</text><text class="terminal-r7" x="97.6" y="142" textLength="122" clip-path="url(#terminal-line-5)">Preflight&#160;</text><text class="terminal-r1" x="939.4" y="142" textLength="12.2" clip-path="url(#terminal-line-5)">│</text><text class="terminal-r4" x="976" y="142" textLength="12.2" clip-path="url(#terminal-line-5)">
</text><text class="terminal-r1" x="0" y="166.4" textLength="12.2" clip-path="url(#terminal-line-6)">│</text><text class="terminal-r7" x="36.6" y="166.4" textLength="61" clip-path="url(#terminal-line-6)">[&#160;&#160;]&#160;</text><text class="terminal-r7" x="97.6" y="166.4" textLength="122" clip-path="url(#terminal-line-6)">Discovery&#160;</text><text class="terminal-r1" x="939.4" y="166.4" textLength="12.2" clip-path="url(#terminal-line-6)">│</text><text class="terminal-r4" x="976" y="166.4" textLength="12.2" clip-path="url(#terminal-line-6)">
</text><text class="terminal-r1" x="0" y="190.8" textLength="12.2" clip-path="url(#terminal-line-7)">│</text><text class="terminal-r7" x="36.6" y="190.8" textLength="61" clip-path="url(#terminal-line-7)">[&#160;&#160;]&#160;</text><text class="terminal-r7" x="97.6" y="190.8" textLength="122" clip-path="url(#terminal-line-7)">Safety&#160;&#160;&#160;&#160;</text><text class="terminal-r1" x="939.4" y="190.8" textLength="12.2" clip-path="url(#terminal-line-7)">│</text><text class="terminal-r4" x="976" y="190.8" textLength="12.2" clip-path="url(#terminal-line-7)">
</text><text class="terminal-r1" x="0" y="215.2" textLength="12.2" clip-path="url(#terminal-line-8)">│</text><text class="terminal-r8" x="36.6" y="215.2" textLength="61" clip-path="url(#terminal-line-8)">[OK]&#160;</text><text class="terminal-r9" x="97.6" y="215.2" textLength="122" clip-path="url(#terminal-line-8)">Config&#160;&#160;&#160;&#160;</text><text class="terminal-r7" x="219.6" y="215.2" textLength="97.6" clip-path="url(#terminal-line-8)">&#160;&#160;&#160;&#160;0.3s</text><text class="terminal-r1" x="939.4" y="215.2" textLength="12.2" clip-path="url(#terminal-line-8)">│</text><text class="terminal-r4" x="976" y="215.2" textLength="12.2" clip-path="url(#terminal-line-8)">
</text><text class="terminal-r1" x="0" y="239.6" textLength="12.2" clip-path="url(#terminal-line-9)">│</text><text class="terminal-r10" x="36.6" y="239.6" textLength="61" clip-path="url(#terminal-line-9)">[&gt;&gt;]&#160;</text><text class="terminal-r9" x="97.6" y="239.6" textLength="122" clip-path="url(#terminal-line-9)">Build&#160;&#160;&#160;&#160;&#160;</text><text class="terminal-r7" x="219.6" y="239.6" textLength="97.6" clip-path="url(#terminal-line-9)">&#160;&#160;&#160;&#160;0.0s</text><text class="terminal-r1" x="939.4" y="239.6" textLength="12.2" clip-path="url(#terminal-line-9)">│</text><text class="terminal-r4" x="976" y="239.6" textLength="12.2" clip-path="url(#terminal-line-9)">
</text><text class="terminal-r1" x="0" y="264" textLength="12.2" clip-path="url(#terminal-line-10)">│</text><text class="terminal-r7" x="36.6" y="264" textLength="61" clip-path="url(#terminal-line-10)">[&#160;&#160;]&#160;</text><text class="terminal-r7" x="97.6" y="264" textLength="122" clip-path="url(#terminal-line-10)">Bootloader</text><text class="terminal-r1" x="939.4" y="264" textLength="12.2" clip-path="url(#terminal-line-10)">│</text><text class="terminal-r4" x="976" y="264" textLength="12.2" clip-path="url(#terminal-line-10)">
</text><text class="terminal-r1" x="0" y="288.4" textLength="12.2" clip-path="url(#terminal-line-11)">│</text><text class="terminal-r7" x="36.6" y="288.4" textLength="61" clip-path="url(#terminal-line-11)">[&#160;&#160;]&#160;</text><text class="terminal-r7" x="97.6" y="288.4" textLength="122" clip-path="url(#terminal-line-11)">Flash&#160;&#160;&#160;&#160;&#160;</text><text class="terminal-r1" x="939.4" y="288.4" textLength="12.2" clip-path="url(#terminal-line-11)">│</text><text class="terminal-r4" x="976" y="288.4" textLength="12.2" clip-path="url(#terminal-line-11)">
</text><text class="terminal-r1" x="0" y="312.8" textLength="12.2" clip-path="url(#terminal-line-12)">│</text><text class="terminal-r7" x="36.6" y="312.8" textLength="61" clip-path="url(#terminal-line-12)">[&#160;&#160;]&#160;</text><text class="terminal-r7" x="97.6" y="312.8" textLength="122" clip-path="url(#terminal-line-12)">Verify&#160;&#160;&#160;&#160;</text><text class="terminal-r1" x="939.4" y="312.8" textLength="12.2" clip-path="url(#terminal-line-12)">│</text><text class="terminal-r4" x="976" y="312.8" textLength="12.2" clip-path="url(#terminal-line-12)">
</text><text class="terminal-r1" x="0" y="337.2" textLength="12.2" clip-path="url(#terminal-line-13)">│</text><text class="terminal-r7" x="36.6" y="337.2" textLength="61" clip-path="url(#terminal-line-13)">[&#160;&#160;]&#160;</text><text class="terminal-r7" x="97.6" y="337.2" textLength="122" clip-path="url(#terminal-line-13)">Service&#160;&#160;&#160;</text><text class="terminal-r1" x="939.4" y="337.2" textLength="12.2" clip-path="url(#terminal-line-13)">│</text><text class="terminal-r4" x="976" y="337.2" textLength="12.2" clip-path="url(#terminal-line-13)">
</text><text class="terminal-r1" x="0" y="361.6" textLength="951.6" clip-path="url(#terminal-line-14)">╰────────────────────────────────────────────────────────────────────────────╯</text><text class="terminal-r4" x="976" y="361.6" textLength="12.2" clip-path="url(#terminal-line-14)">
</text><text class="terminal-r4" x="976" y="386" textLength="12.2" clip-path="url(#terminal-line-15)">
</text><text class="terminal-r1" x="0" y="410.4" textLength="24.4" clip-path="url(#terminal-line-16)">╭─</text><text class="terminal-r2" x="24.4" y="410.4" textLength="256.2" clip-path="url(#terminal-line-16)">&#160;[&#160;P&#160;R&#160;O&#160;G&#160;R&#160;E&#160;S&#160;S&#160;]&#160;</text><text class="terminal-r1" x="280.6" y="410.4" textLength="671" clip-path="url(#terminal-line-16)">──────────────────────────────────────────────────────╮</text><text class="terminal-r4" x="976" y="410.4" textLength="12.2" clip-path="url(#terminal-line-16)">
</text><text class="terminal-r1" x="0" y="434.8" textLength="12.2" clip-path="url(#terminal-line-17)">│</text><text class="terminal-r9" x="36.6" y="434.8" textLength="122" clip-path="url(#terminal-line-17)">Build:&#160;45%</text><text class="terminal-r1" x="939.4" y="434.8" textLength="12.2" clip-path="url(#terminal-line-17)">│</text><text class="terminal-r4" x="976" y="434.8" textLength="12.2" clip-path="url(#terminal-line-17)">
</text><text class="terminal-r1" x="0" y="459.2" textLength="12.2" clip-path="url(#terminal-line-18)">│</text><text class="terminal-r5" x="36.6" y="459.2" textLength="366" clip-path="url(#terminal-line-18)">━━━━━━━━━━━━━━━━━━━━━━━━━━━━━━</text><text class="terminal-r3" x="402.6" y="459.2" textLength="451.4" clip-path="url(#terminal-line-18)">╺━━━━━━━━━━━━━━━━━━━━━━━━━━━━━━━━━━━━</text><text class="terminal-r6" x="878.4" y="459.2" textLength="36.6" clip-path="url(#terminal-line-18)">45%</text><text class="terminal-r1" x="939.4" y="459.2" textLength="12.2" clip-path="url(#terminal-line-18)">│</text><text class="terminal-r4" x="976" y="459.2" textLength="12.2" clip-path="url(#terminal-line-18)">
</text><text class="terminal-r1" x="0" y="483.6" textLength="951.6" clip-path="url(#terminal-line-19)">╰────────────────────────────────────────────────────────────────────────────╯</text><text class="terminal-r4" x="976" y="483.6" textLength="12.2" clip-path="url(#terminal-line-19)">
</text><text class="terminal-r4" x="976" y="508" textLength="12.2" clip-path="url(#terminal-line-20)">
</text><text class="terminal-r1" x="0" y="532.4" textLength="24.4" clip-path="url(#terminal-line-21)">╭─</text><text class="terminal-r2" x="24.4" y="532.4" textLength="134.2" clip-path="url(#terminal-line-21)">&#160;[&#160;L&#160;O&#160;G&#160;]&#160;</text><text class="terminal-r1" x="158.6" y="532.4" textLength="793" clip-path="url(#terminal-line-21)">────────────────────────────────────────────────────────────────╮</text><text class="terminal-r4" x="976" y="532.4" textLength="12.2" clip-path="url(#terminal-line-21)">
</text><text class="terminal-r1" x="0" y="556.8" textLength="12.2" clip-path="url(#terminal-line-22)">│</text><text class="terminal-r1" x="36.6" y="556.8" textLength="353.8" clip-path="url(#terminal-line-22)">[Config]&#160;Loaded&#160;cached&#160;config</text><text class="terminal-r1" x="939.4" y="556.8" textLength="12.2" clip-path="url(#terminal-line-22)">│</text><text class="terminal-r4" x="976" y="556.8" textLength="12.2" clip-path="url(#terminal-line-22)">
</text><text class="terminal-r1" x="0" y="581.2" textLength="12.2" clip-path="url(#terminal-line-23)">│</text><text class="terminal-r1" x="36.6" y="581.2" textLength="402.6" clip-path="url(#terminal-line-23)">[Config]&#160;MCU&#160;validated:&#160;stm32h723</text><text class="terminal-r1" x="939.4" y="581.2" textLength="12.2" clip-path="url(#terminal-line-23)">│</text><text class="terminal-r4" x="976" y="581.2" textLength="12.2" clip-path="url(#terminal-line-23)">
</text><text class="terminal-r1" x="0" y="605.6" textLength="12.2" clip-path="url(#terminal-line-24)">│</text><text class="terminal-r1" x="36.6" y="605.6" textLength="439.2" clip-path="url(#terminal-line-24)">[Build]&#160;Running&#160;make&#160;clean&#160;+&#160;make...</text><text class="terminal-r1" x="939.4" y="605.6" textLength="12.2" clip-path="url(#terminal-line-24)">│</text><text class="terminal-r11" x="951.6" y="605.6" textLength="24.4" clip-path="url(#terminal-line-24)">▇▇</text><text class="terminal-r4" x="976" y="605.6" textLength="12.2" clip-path="url(#terminal-line-24)">
</text><text class="terminal-r1" x="0" y="630" textLength="12.2" clip-path="url(#terminal-line-25)">│</text><text class="terminal-r7" x="36.6" y="630" textLength="195.2" clip-path="url(#terminal-line-25)">Compiling...&#160;45%</text><text class="terminal-r1" x="939.4" y="630" textLength="12.2" clip-path="url(#terminal-line-25)">│</text><text class="terminal-r4" x="976" y="630" textLength="12.2" clip-path="url(#terminal-line-25)">
</text><text class="terminal-r1" x="0" y="654.4" textLength="12.2" clip-path="url(#terminal-line-26)">│</text><text class="terminal-r1" x="939.4" y="654.4" textLength="12.2" clip-path="url(#terminal-line-26)">│</text><text class="terminal-r4" x="976" y="654.4" textLength="12.2" clip-path="url(#terminal-line-26)">
</text><text class="terminal-r1" x="0" y="678.8" textLength="12.2" clip-path="url(#terminal-line-27)">│</text><text class="terminal-r1" x="939.4" y="678.8" textLength="12.2" clip-path="url(#terminal-line-27)">│</text><text class="terminal-r4" x="976" y="678.8" textLength="12.2" clip-path="url(#terminal-line-27)">
</text><text class="terminal-r1" x="0" y="703.2" textLength="12.2" clip-path="url(#terminal-line-28)">│</text><text class="terminal-r1" x="939.4" y="703.2" textLength="12.2" clip-path="url(#terminal-line-28)">│</text><text class="terminal-r4" x="976" y="703.2" textLength="12.2" clip-path="url(#terminal-line-28)">
</text><text class="terminal-r1" x="0" y="727.6" textLength="12.2" clip-path="url(#terminal-line-29)">│</text><text class="terminal-r1" x="939.4" y="727.6" textLength="12.2" clip-path="url(#terminal-line-29)">│</text><text class="terminal-r4" x="976" y="727.6" textLength="12.2" clip-path="url(#terminal-line-29)">
</text><text class="terminal-r1" x="0" y="752" textLength="12.2" clip-path="url(#terminal-line-30)">│</text><text class="terminal-r1" x="939.4" y="752" textLength="12.2" clip-path="url(#terminal-line-30)">│</text><text class="terminal-r4" x="976" y="752" textLength="12.2" clip-path="url(#terminal-line-30)">
</text><text class="terminal-r1" x="0" y="776.4" textLength="12.2" clip-path="url(#terminal-line-31)">│</text><text class="terminal-r1" x="939.4" y="776.4" textLength="12.2" clip-path="url(#terminal-line-31)">│</text><text class="terminal-r4" x="976" y="776.4" textLength="12.2" clip-path="url(#terminal-line-31)">
</text><text class="terminal-r1" x="0" y="800.8" textLength="12.2" clip-path="url(#terminal-line-32)">│</text><text class="terminal-r1" x="939.4" y="800.8" textLength="12.2" clip-path="url(#terminal-line-32)">│</text><text class="terminal-r4" x="976" y="800.8" textLength="12.2" clip-path="url(#terminal-line-32)">
</text><text class="terminal-r1" x="0" y="825.2" textLength="12.2" clip-path="url(#terminal-line-33)">│</text><text class="terminal-r1" x="939.4" y="825.2" textLength="12.2" clip-path="url(#terminal-line-33)">│</text><text class="terminal-r4" x="976" y="825.2" textLength="12.2" clip-path="url(#terminal-line-33)">
</text><text class="terminal-r1" x="0" y="849.6" textLength="12.2" clip-path="url(#terminal-line-34)">│</text><text class="terminal-r1" x="939.4" y="849.6" textLength="12.2" clip-path="url(#terminal-line-34)">│</text><text class="terminal-r4" x="976" y="849.6" textLength="12.2" clip-path="url(#terminal-line-34)">
</text><text class="terminal-r1" x="0" y="874" textLength="12.2" clip-path="url(#terminal-line-35)">│</text><text class="terminal-r1" x="939.4" y="874" textLength="12.2" clip-path="url(#terminal-line-35)">│</text><text class="terminal-r4" x="976" y="874" textLength="12.2" clip-path="url(#terminal-line-35)">
</text><text class="terminal-r1" x="0" y="898.4" textLength="12.2" clip-path="url(#terminal-line-36)">│</text><text class="terminal-r1" x="939.4" y="898.4" textLength="12.2" clip-path="url(#terminal-line-36)">│</text><text class="terminal-r4" x="976" y="898.4" textLength="12.2" clip-path="url(#terminal-line-36)">
</text><text class="terminal-r1" x="0" y="922.8" textLength="12.2" clip-path="url(#terminal-line-37)">│</text><text class="terminal-r1" x="939.4" y="922.8" textLength="12.2" clip-path="url(#terminal-line-37)">│</text><text class="terminal-r4" x="976" y="922.8" textLength="12.2" clip-path="url(#terminal-line-37)">
</text><text class="terminal-r4" x="976" y="947.2" textLength="12.2" clip-path="url(#terminal-line-38)">
</text><text class="terminal-r7" x="0" y="971.6" textLength="244" clip-path="url(#terminal-line-39)">Flash&#160;in&#160;progress...</text>
    </g>
    </g>
</svg>
